<svg width="20" height="20" viewBox="0 0 20 20" fill="none" xmlns="http://www.w3.org/2000/svg">
    <g clip-path="url(#clip0_15749_18447)">
        <path d="M14.375 14.375C14.375 15.038 14.1116 15.6739 13.6428 16.1428C13.1739 16.6116 12.538 16.875 11.875 16.875C10.8047 16.875 9.76953 16.1773 9.41406 15.2172C9.35997 15.0626 9.36872 14.893 9.43842 14.7448C9.50812 14.5966 9.6332 14.4816 9.78677 14.4247C9.94033 14.3678 10.1101 14.3734 10.2596 14.4404C10.409 14.5074 10.5262 14.6303 10.5859 14.7828C10.7609 15.2555 11.3281 15.625 11.875 15.625C12.2065 15.625 12.5245 15.4933 12.7589 15.2589C12.9933 15.0245 13.125 14.7065 13.125 14.375C13.125 14.0435 12.9933 13.7255 12.7589 13.4911C12.5245 13.2567 12.2065 13.125 11.875 13.125H3.125C2.95924 13.125 2.80027 13.0592 2.68306 12.9419C2.56585 12.8247 2.5 12.6658 2.5 12.5C2.5 12.3342 2.56585 12.1753 2.68306 12.0581C2.80027 11.9408 2.95924 11.875 3.125 11.875H11.875C12.538 11.875 13.1739 12.1384 13.6428 12.6072C14.1116 13.0761 14.375 13.712 14.375 14.375ZM9.375 8.125C10.038 8.125 10.6739 7.86161 11.1428 7.39277C11.6116 6.92393 11.875 6.28804 11.875 5.625C11.875 4.96196 11.6116 4.32607 11.1428 3.85723C10.6739 3.38839 10.038 3.125 9.375 3.125C8.30469 3.125 7.26953 3.82266 6.91406 4.78281C6.85997 4.93739 6.86872 5.10703 6.93842 5.25523C7.00812 5.40343 7.1332 5.51835 7.28677 5.57527C7.44033 5.63219 7.6101 5.62656 7.75955 5.5596C7.90901 5.49263 8.02621 5.36968 8.08594 5.21719C8.26094 4.74453 8.82812 4.375 9.375 4.375C9.70652 4.375 10.0245 4.5067 10.2589 4.74112C10.4933 4.97554 10.625 5.29348 10.625 5.625C10.625 5.95652 10.4933 6.27446 10.2589 6.50888C10.0245 6.7433 9.70652 6.875 9.375 6.875H1.875C1.70924 6.875 1.55027 6.94085 1.43306 7.05806C1.31585 7.17527 1.25 7.33424 1.25 7.5C1.25 7.66576 1.31585 7.82473 1.43306 7.94194C1.55027 8.05915 1.70924 8.125 1.875 8.125H9.375ZM16.25 5.625C15.1797 5.625 14.1445 6.32266 13.7891 7.28281C13.735 7.43739 13.7437 7.60703 13.8134 7.75523C13.8831 7.90343 14.0082 8.01835 14.1618 8.07527C14.3153 8.13219 14.4851 8.12656 14.6346 8.0596C14.784 7.99263 14.9012 7.86968 14.9609 7.71719C15.1359 7.24453 15.7031 6.875 16.25 6.875C16.5815 6.875 16.8995 7.0067 17.1339 7.24112C17.3683 7.47554 17.5 7.79348 17.5 8.125C17.5 8.45652 17.3683 8.77446 17.1339 9.00888C16.8995 9.2433 16.5815 9.375 16.25 9.375H2.5C2.33424 9.375 2.17527 9.44085 2.05806 9.55806C1.94085 9.67527 1.875 9.83424 1.875 10C1.875 10.1658 1.94085 10.3247 2.05806 10.4419C2.17527 10.5592 2.33424 10.625 2.5 10.625H16.25C16.913 10.625 17.5489 10.3616 18.0178 9.89277C18.4866 9.42393 18.75 8.78804 18.75 8.125C18.75 7.46196 18.4866 6.82607 18.0178 6.35723C17.5489 5.88839 16.913 5.625 16.25 5.625Z" fill="black"/>
        <path d="M19.9691 2.64828C19.9595 2.48733 19.8905 2.33542 19.7749 2.22142C19.6594 2.10741 19.5054 2.03924 19.3423 2.02984C15.0283 1.78312 11.5644 3.07757 10.0758 5.50201C9.09231 7.10486 9.09397 9.05148 10.0625 10.9085C9.51121 11.556 9.10833 12.3134 8.88144 13.1289L7.52538 11.786C8.17716 10.443 8.15215 9.04326 7.44204 7.88038C6.34186 6.08838 3.80228 5.12781 0.649267 5.31039C0.486145 5.31979 0.332199 5.38796 0.216658 5.50197C0.101117 5.61597 0.0320241 5.76788 0.0224981 5.92883C-0.163366 9.03997 0.81096 11.5458 2.62709 12.6314C3.22641 12.9927 3.91509 13.1839 4.61741 13.184C5.29911 13.1758 5.97019 13.0164 6.58106 12.7177L8.66474 14.7737V17.1316C8.66474 17.306 8.73499 17.4734 8.86003 17.5968C8.98507 17.7202 9.15467 17.7895 9.33151 17.7895C9.50835 17.7895 9.67795 17.7202 9.80299 17.5968C9.92804 17.4734 9.99829 17.306 9.99829 17.1316V14.7063C9.99532 13.6596 10.3563 12.6436 11.021 11.8279C11.8786 12.2701 12.8297 12.5068 13.7972 12.5187C14.7327 12.5217 15.6508 12.2695 16.4502 11.7901C18.9072 10.3229 20.2225 6.90502 19.9691 2.64828ZM3.3147 11.5063C2.03616 10.7423 1.31271 8.93388 1.33021 6.60484C3.69059 6.58511 5.52339 7.30142 6.29769 8.56298C6.70192 9.2209 6.76776 9.98819 6.50272 10.7785L4.46822 8.77104C4.34216 8.65287 4.1743 8.58796 4.00043 8.59015C3.82656 8.59235 3.66044 8.66148 3.53748 8.7828C3.41453 8.90412 3.34447 9.06804 3.34225 9.2396C3.34002 9.41116 3.4058 9.57679 3.52557 9.70118L5.56007 11.7087C4.7591 11.9702 3.98231 11.9052 3.3147 11.5063ZM15.7592 10.6659C14.6424 11.3328 13.3297 11.3838 11.9961 10.8303L16.471 6.41405C16.5908 6.28966 16.6566 6.12403 16.6543 5.95247C16.6521 5.78091 16.582 5.61699 16.4591 5.49567C16.3361 5.37435 16.17 5.30522 15.9961 5.30303C15.8223 5.30083 15.6544 5.36574 15.5284 5.48391L11.0526 9.89444C10.4892 8.5786 10.54 7.2825 11.2193 6.18131C12.3812 4.28979 15.1366 3.23547 18.6647 3.31689C18.7447 6.79729 17.6779 9.51943 15.7592 10.6659Z" fill="black"/>
        <path d="M15.3424 14.2802H4.61787C3.47135 14.2729 2.36798 13.8421 1.5199 13.0705C0.671818 12.299 0.13889 11.2411 0.023575 10.1004C-0.0917397 8.95968 0.2187 7.81659 0.895208 6.89091C1.57172 5.96522 2.56654 5.32229 3.68841 5.08572C3.99707 3.64614 4.79006 2.35595 5.93506 1.43042C7.08007 0.504887 8.50784 0 9.98013 0C11.4524 0 12.8802 0.504887 14.0252 1.43042C15.1702 2.35595 15.9632 3.64614 16.2719 5.08572C17.3937 5.32229 18.3885 5.96522 19.0651 6.89091C19.7416 7.81659 20.052 8.95968 19.9367 10.1004C19.8214 11.2411 19.2884 12.299 18.4404 13.0705C17.5923 13.8421 16.4889 14.2729 15.3424 14.2802ZM9.98013 1.41078C8.76012 1.41199 7.58257 1.8588 6.66884 2.6672C5.75512 3.4756 5.16814 4.58992 5.01825 5.80068L4.97535 6.41556H4.36048C3.50718 6.44969 2.70239 6.82139 2.12316 7.4489C1.54392 8.07641 1.23768 8.90831 1.27182 9.76161C1.30595 10.6149 1.67765 11.4197 2.30516 11.9989C2.93267 12.5782 3.76457 12.8844 4.61787 12.8503H15.3424C16.1957 12.8844 17.0276 12.5782 17.6551 11.9989C18.2826 11.4197 18.6543 10.6149 18.6884 9.76161C18.7226 8.90831 18.4163 8.07641 17.8371 7.4489C17.2579 6.82139 16.4531 6.44969 15.5998 6.41556H14.9849L14.9134 5.82928C14.7706 4.61821 14.1905 3.50094 13.2821 2.68735C12.3737 1.87375 11.1996 1.41981 9.98013 1.41078ZM8.55019 20C8.43803 20.0013 8.32735 19.9742 8.22846 19.9213C8.06006 19.8356 7.93245 19.6867 7.8735 19.5072C7.81455 19.3277 7.82907 19.1321 7.91387 18.9632L9.34381 16.1034C9.3816 16.0126 9.43771 15.9306 9.50863 15.8625C9.57954 15.7944 9.66374 15.7417 9.75596 15.7076C9.84818 15.6735 9.94644 15.6588 10.0446 15.6644C10.1428 15.67 10.2387 15.6958 10.3264 15.7402C10.4142 15.7845 10.4918 15.8465 10.5545 15.9223C10.6172 15.998 10.6636 16.0858 10.6909 16.1803C10.7181 16.2748 10.7255 16.3738 10.7127 16.4713C10.6999 16.5688 10.6671 16.6626 10.6165 16.7468L9.18651 19.6067C9.1271 19.7246 9.0362 19.8238 8.92388 19.8932C8.81157 19.9626 8.68222 19.9996 8.55019 20ZM12.84 20C12.7278 20.0013 12.6172 19.9742 12.5183 19.9213C12.3499 19.8356 12.2223 19.6867 12.1633 19.5072C12.1044 19.3277 12.1189 19.1321 12.2037 18.9632L13.6336 16.1034C13.6714 16.0126 13.7275 15.9306 13.7984 15.8625C13.8694 15.7944 13.9536 15.7417 14.0458 15.7076C14.138 15.6735 14.2363 15.6588 14.3344 15.6644C14.4326 15.67 14.5285 15.6958 14.6163 15.7402C14.704 15.7845 14.7816 15.8465 14.8443 15.9223C14.907 15.998 14.9535 16.0858 14.9807 16.1803C15.0079 16.2748 15.0153 16.3738 15.0025 16.4713C14.9897 16.5688 14.957 16.6626 14.9063 16.7468L13.4763 19.6067C13.4169 19.7246 13.326 19.8238 13.2137 19.8932C13.1014 19.9626 12.972 19.9996 12.84 20ZM4.26038 20C4.14822 20.0013 4.03754 19.9742 3.93865 19.9213C3.77026 19.8356 3.64264 19.6867 3.58369 19.5072C3.52474 19.3277 3.53926 19.1321 3.62406 18.9632L5.054 16.1034C5.09179 16.0126 5.1479 15.9306 5.21882 15.8625C5.28973 15.7944 5.37393 15.7417 5.46615 15.7076C5.55837 15.6735 5.65663 15.6588 5.75479 15.6644C5.85295 15.67 5.94889 15.6958 6.03663 15.7402C6.12437 15.7845 6.20202 15.8465 6.26472 15.9223C6.32743 15.998 6.37384 16.0858 6.40105 16.1803C6.42827 16.2748 6.43571 16.3738 6.42291 16.4713C6.4101 16.5688 6.37733 16.6626 6.32664 16.7468L4.89671 19.6067C4.83729 19.7246 4.74639 19.8238 4.63407 19.8932C4.52176 19.9626 4.39241 19.9996 4.26038 20Z" fill="black"/>
    </g>
    <defs>
        <clipPath id="clip0_15749_18447">
            <rect width="20" height="20" fill="white"/>
        </clipPath>
    </defs>
</svg>
