<svg width="40" height="40" viewBox="0 0 40 40" fill="none" xmlns="http://www.w3.org/2000/svg">
<path d="M11 14H29V26H11V14ZM20 17C20.7956 17 21.5587 17.3161 22.1213 17.8787C22.6839 18.4413 23 19.2044 23 20C23 20.7956 22.6839 21.5587 22.1213 22.1213C21.5587 22.6839 20.7956 23 20 23C19.2044 23 18.4413 22.6839 17.8787 22.1213C17.3161 21.5587 17 20.7956 17 20C17 19.2044 17.3161 18.4413 17.8787 17.8787C18.4413 17.3161 19.2044 17 20 17ZM15 16C15 16.5304 14.7893 17.0391 14.4142 17.4142C14.0391 17.7893 13.5304 18 13 18V22C13.5304 22 14.0391 22.2107 14.4142 22.5858C14.7893 22.9609 15 23.4696 15 24H25C25 23.4696 25.2107 22.9609 25.5858 22.5858C25.9609 22.2107 26.4696 22 27 22V18C26.4696 18 25.9609 17.7893 25.5858 17.4142C25.2107 17.0391 25 16.5304 25 16H15Z" fill="#31D158"/>
</svg>
