<svg xmlns="http://www.w3.org/2000/svg" viewBox="0 0 172 22.1" width="172" height="22"><path d="M.1.1c-.3.3-.2.5 1.1 3.4 1.2 2.7 1.2 2.8 1.2 3.3s0 .5-.7 3c-.4 1.5-.7 2.6-.7 2.7 0 .3.1.6.3.8.1.1 1.3.6 2.8 1.2 2.5 1 3 1.2 3.3 1.6.1.1 1 1.4 2.1 3 1.9 2.9 2 3 2.4 3 .4 0 .5-.2 2.5-3.1 1.6-2.4 2-2.9 2.3-3.1.3-.2.8-.4 3-1.3 2.9-1.1 3-1.2 3.2-1.7.1-.3.1-.1-.7-3-.7-2.3-.7-2.5-.7-2.9 0-.4.2-.7 1.2-3.3C24 .7 24 .5 23.8.2c-.1-.1-.3-.2-.4-.2-.1 0-1.8.6-3.9 1.3-2 .7-3.8 1.4-4.1 1.5-.4.1-.6.1-3.3.2-2.3 0-3 0-3.4-.1-.3-.1-2-.7-4.3-1.5C2.2.5.6 0 .5 0 .3 0 .2 0 .1.1zM21.2 4c-.5 1.2-1 2.3-1 2.4-.1.6 0 1.1.3 2.2.2.6.3 1.1.3 1.1s-4.4-5.6-4.5-5.8v-.2c.1-.1 5.7-2.1 5.7-2.1.1.1-.3 1.1-.8 2.4zM4.7 2.8c1.5.5 2.7 1 2.8 1.1.1.1.1.1 0 .3C7.4 4.2 3 9.8 3 9.8s.1-.5.3-1.1c.4-1.3.5-1.7.4-2.2 0-.2-.5-1.3-1-2.5s-.9-2.2-.9-2.2c0-.1 0-.1 2.9 1zm6.4 1.5c.1.1.1.2.2.3V12c0 6.4 0 7.2-.1 7.2s-.3-.3-.6-.8c-.3-.4-.9-1.4-1.4-2.1-1.2-1.7-1-1.6-4-2.8-1.3-.5-2.4-.9-2.4-1-.1-.1-.1-.1-.1-.2s1.4-1.9 3.1-4C9.4 3.8 9 4.1 10.3 4.1c.6.1.7.1.8.2zm3.7.1c.4.2.1-.1 4 4.8 1.3 1.7 2.4 3.2 2.5 3.2 0 .1 0 .2-.1.2-.1.1-1.1.5-2.3.9-2.5.9-2.8 1.1-3.2 1.5-.2.2-.9 1.2-1.6 2.2-.7 1.1-1.4 1.9-1.4 1.9-.1 0-.1-1.6-.1-7.4V4.3l.1-.1c.1-.1.2-.1.9-.1.8.1.9.1 1.2.3zm52-.3c-.8.1-1.7.4-2.4.8-1.1.7-1.5 1.7-1.5 3.1 0 1.4.5 2.3 1.5 3 .7.5 1.3.7 3.3 1.2 1.6.4 2.2.7 2.5 1.3.2.4.2.9 0 1.4-.2.4-.6.7-1.2.9-.4.1-.5.1-1.3.1-.5 0-1-.1-1.2-.1-.6-.2-1.7-.7-2.3-1.2-.3-.2-.5-.4-.5-.4s-.4.4-.7.8c-.8 1-.8.8-.1 1.4 1.3.9 2.6 1.5 4.2 1.6 1.3.1 2.4 0 3.4-.5.5-.2.7-.4 1.1-.8.8-.8 1.1-1.6 1-2.9-.1-1.2-.3-1.7-1-2.4s-1.5-1-3.9-1.6c-2-.6-2.5-.9-2.5-1.9 0-.7.3-1.2 1.1-1.4.5-.2 1.8-.2 2.6 0 .7.2 1.4.5 1.8.8.3.2.4.2.5.2l.6-.8.5-.8-.3-.2c-.4-.7-1-1-1.8-1.2-1.1-.4-2.4-.6-3.4-.4zm63.8-.1c-1.7.2-3 .8-4.1 2-.9.9-1.5 1.9-1.8 3.1-.2.6-.2.7-.2 1.9 0 1.1 0 1.3.1 1.7.4 1.3.9 2.3 1.8 3.2.9.9 1.9 1.5 3.2 1.8.6.2.7.2 1.9.2s1.3 0 1.9-.2c.7-.2 1.8-.7 2.4-1.2.9-.7 1.8-1.8 2.2-2.7 1-2.4.6-5.2-.9-7.2-1-1.3-2.4-2.1-4.1-2.5-.5 0-1.9-.1-2.4-.1zm2.1 2.3c1.6.4 2.9 1.6 3.3 3.2.2.6.2 1.8.1 2.5-.4 1.8-1.8 3.3-3.6 3.7-.6.1-1.7.1-2.3-.1-1.6-.4-2.8-1.7-3.3-3.4-.2-.6-.2-1.9 0-2.5.4-1.7 1.9-3.2 3.5-3.5.6-.1 1.7-.1 2.3.1zm-99.9 4.8v6.7H35v-4.5h3l1.6 2.3 1.6 2.3h2.9l-.2-.3c-.1-.2-.9-1.3-1.7-2.4-1.4-2-1.5-2.1-1.4-2.2.1 0 .4-.2.7-.3 1-.5 1.6-1.3 1.9-2.4.2-.6.2-2.3 0-2.9-.5-1.8-1.8-2.7-4.5-2.9-.4 0-2-.1-3.5-.1h-2.7v6.7h.1zm6.9-4.5c1.1.3 1.4.9 1.4 2.1 0 1.4-.5 2.1-1.7 2.4-.3.1-.9.1-2.4.1h-2V6.4h2.2c1.7.1 2.2.1 2.5.2zm12.4 4.5v6.7h2.3V4.4h-2.2v6.7zM81 4.4v13.4h2.3V14l.9-1c.5-.6 1-1 1-1s1 1.3 2.3 2.9l2.2 2.9h2.6s-3.6-5-5.2-7.2l-.2-.3 2.7-2.9c1.5-1.6 2.7-2.9 2.7-3h-2.8l-3.1 3.3-3.1 3.3V4.4h-1.1c-.7-.1-1.2-.1-1.2 0zm17.3 0c0 .1 4 11.6 4.5 13l.1.4h2.2l1.4-4.6c.8-2.5 1.4-4.6 1.5-4.6s.7 2.1 1.5 4.6l1.4 4.6h2.3l.1-.4c.5-1.4 4.5-13 4.5-13s-.3-.1-1.2-.1c-.7 0-1.2 0-1.2.1 0 0-.8 2.2-1.7 4.7-.9 2.6-1.6 4.7-1.7 4.7 0 .1-.1.1-.1.1l-3-9.5h-2c0 .1-3 9.5-3 9.5s.2.6-1.7-4.8c-.9-2.6-1.6-4.7-1.7-4.7 0 0-.6-.1-1.2-.1-.8 0-1 0-1 .1zm48.5 6.7v6.7h8.4v-2.2h-6.1V4.4h-2.2v6.7zm16.3-6.7v13.4h2.3v-5.5h6v-2.1h-6V6.5h6.6V4.4h-4.5c-2.4-.1-4.4-.1-4.4 0z" fill="#fff"/></svg>
