<svg xmlns="http://www.w3.org/2000/svg" viewBox="0 0 686.47 88.05"><defs><style>.cls-1{fill:none;stroke:#000;stroke-miterlimit:10;stroke-width:2.13px}</style></defs><g id="Layer_2" data-name="Layer 2"><g id="Layer_1-2" data-name="Layer 1"><path d="M49.5 85.92a2 2 0 0 1-3.5 0L31.49 64.48a11.76 11.76 0 0 0-4.66-3.72L7.21 53.15a3.46 3.46 0 0 1-2-4.12l5.53-18.57a10.15 10.15 0 0 0-.32-5.87L1.31 3.07C.64 1.49 1.41.67 3 1.25l29.27 10.59a21.38 21.38 0 0 0 6.06 1.06h18.84a21.38 21.38 0 0 0 6.06-1.06L92.48 1.25c1.62-.58 2.39.23 1.72 1.81l-9.09 21.52a10.15 10.15 0 0 0-.32 5.87L90.31 49a3.46 3.46 0 0 1-2 4.12l-19.64 7.65A11.76 11.76 0 0 0 64 64.48Zm2.76-70.25a3.13 3.13 0 0 0-3.12 3.12v59.59c0 1.72.79 2 1.75.54L62.2 62.21a11.76 11.76 0 0 1 4.66-3.72l17.49-6.79a2.19 2.19 0 0 0 1-3.59l-23.54-30a7.28 7.28 0 0 0-5.05-2.46ZM10.17 48.12a2.19 2.19 0 0 0 1 3.59l17.49 6.79a11.76 11.76 0 0 1 4.66 3.72l11.29 16.7c1 1.42 1.75 1.18 1.75-.54V18.8a3.13 3.13 0 0 0-3.12-3.12h-4.48a7.28 7.28 0 0 0-5.05 2.46Zm55.58-34.25a2.13 2.13 0 0 0-1 3.52l19.42 24.76c1.06 1.35 1.53 1.11 1-.54l-3.33-11.32a10.15 10.15 0 0 1 .32-5.87l7-16.59c.67-1.58-.11-2.4-1.72-1.81ZM8.05 6c-1.62-.58-2.39.23-1.72 1.81l7 16.59a10.15 10.15 0 0 1 .32 5.87l-3.36 11.34c-.49 1.65 0 1.89 1 .54l19.47-24.76a2.13 2.13 0 0 0-1-3.52Z"/><path class="cls-1" d="M49.5 85.92a2 2 0 0 1-3.5 0L31.49 64.48a11.76 11.76 0 0 0-4.66-3.72L7.21 53.15a3.46 3.46 0 0 1-2-4.12l5.53-18.57a10.15 10.15 0 0 0-.32-5.87L1.31 3.07C.64 1.49 1.41.67 3 1.25l29.27 10.59a21.38 21.38 0 0 0 6.06 1.06h18.84a21.38 21.38 0 0 0 6.06-1.06L92.48 1.25c1.62-.58 2.39.23 1.72 1.81l-9.09 21.52a10.15 10.15 0 0 0-.32 5.87L90.31 49a3.46 3.46 0 0 1-2 4.12l-19.64 7.65A11.76 11.76 0 0 0 64 64.48Zm2.76-70.25a3.13 3.13 0 0 0-3.12 3.12v59.59c0 1.72.79 2 1.75.54L62.2 62.21a11.76 11.76 0 0 1 4.66-3.72l17.49-6.79a2.19 2.19 0 0 0 1-3.59l-23.54-30a7.28 7.28 0 0 0-5.05-2.46ZM10.17 48.12a2.19 2.19 0 0 0 1 3.59l17.49 6.79a11.76 11.76 0 0 1 4.66 3.72l11.29 16.7c1 1.42 1.75 1.18 1.75-.54V18.8a3.13 3.13 0 0 0-3.12-3.12h-4.48a7.28 7.28 0 0 0-5.05 2.46Zm55.58-34.25a2.13 2.13 0 0 0-1 3.52l19.42 24.76c1.06 1.35 1.53 1.11 1-.54l-3.33-11.32a10.15 10.15 0 0 1 .32-5.87l7-16.59c.67-1.58-.11-2.4-1.72-1.81ZM8.05 6c-1.62-.58-2.39.23-1.72 1.81l7 16.59a10.15 10.15 0 0 1 .32 5.87l-3.36 11.34c-.49 1.65 0 1.89 1 .54l19.47-24.76a2.13 2.13 0 0 0-1-3.52Z"/><path d="M45.56 77.61a3.58 3.58 0 0 0-.44 4.54l.88 1.3a2 2 0 0 0 3.5 0l.88-1.3a3.58 3.58 0 0 0-.44-4.54 3.38 3.38 0 0 0-4.38 0Z"/><path class="cls-1" d="M45.56 77.61a3.58 3.58 0 0 0-.44 4.54l.88 1.3a2 2 0 0 0 3.5 0l.88-1.3a3.58 3.58 0 0 0-.44-4.54 3.38 3.38 0 0 0-4.38 0Z"/><path d="M173.6 34.86q0 13.27-11.58 16.72l14 19.48h-11.5L151.74 53h-11.88v18h-9V17.46h19.94q12.27 0 17.56 4.14t5.24 13.26Zm-12 7.59q2.76-2.38 2.76-7.63t-2.84-7.21q-2.84-2-10.12-2h-11.5v19.22h11.27q7.63 0 10.39-2.38ZM208.1 17.46h9v53.6h-9ZM269.71 24.51a11.87 11.87 0 0 0-6.48 1.61A5.38 5.38 0 0 0 260.7 31a5.66 5.66 0 0 0 2.53 5q2.53 1.73 10.77 3.72t12.42 5.6q4.18 3.6 4.18 10.62a14.07 14.07 0 0 1-5.29 11.39q-5.29 4.37-13.88 4.37a32.59 32.59 0 0 1-22.31-8.7l5.67-6.82q8.13 7.05 16.87 7.05a11.52 11.52 0 0 0 6.94-1.88 5.88 5.88 0 0 0 2.57-5 5.6 5.6 0 0 0-2.42-4.83q-2.42-1.73-8.32-3.14a74.35 74.35 0 0 1-9-2.61 20.23 20.23 0 0 1-5.44-3.1q-4.75-3.6-4.75-11t5.41-11.46a21.77 21.77 0 0 1 13.38-4 32.1 32.1 0 0 1 10.2 1.69 26.69 26.69 0 0 1 8.77 4.69l-4.83 6.82a18.29 18.29 0 0 0-6.44-3.53 24.81 24.81 0 0 0-8.02-1.37ZM323.27 17.46h9V43.6l24.54-26.15h11.5L346.8 40.92l21.85 30.13h-10.73l-17.79-23.46-7.82 8.41v15h-9ZM415.43 56l12-38.57h8.13l12 38.57L461 17.46h9.74L452 71.05h-9l-11.24-36.72h-.61l-11.27 36.72h-9L392.2 17.46h9.74ZM544.86 63.65a29.39 29.39 0 0 1-40.18 0 26.52 26.52 0 0 1-8.13-19.78 26.52 26.52 0 0 1 8.13-19.78 29.4 29.4 0 0 1 40.18 0A26.53 26.53 0 0 1 553 43.87a26.53 26.53 0 0 1-8.14 19.78Zm-6.63-33.55a18.79 18.79 0 0 0-26.91 0 19.08 19.08 0 0 0-5.48 13.76 19.07 19.07 0 0 0 5.48 13.76 18.79 18.79 0 0 0 26.91 0 19.08 19.08 0 0 0 5.48-13.76 19.08 19.08 0 0 0-5.49-13.75ZM585.88 71.05V17.46h9v45h24.46v8.59ZM659.79 25.89v14.72h23.77V49h-23.77v22.05h-9V17.46h35.73l-.08 8.43Z"/></g></g></svg>
