<svg width="209" height="208" viewBox="0 0 209 208" fill="none" xmlns="http://www.w3.org/2000/svg">
<path d="M24.2754 2L21.3886 7L27.1621 7L24.2754 2ZM23.7754 6.5L23.7754 180L24.7754 180L24.7754 6.5L23.7754 6.5Z" fill="black"/>
<path d="M200.732 180.854C200.928 180.658 200.928 180.342 200.732 180.146L197.55 176.964C197.355 176.769 197.039 176.769 196.843 176.964C196.648 177.16 196.648 177.476 196.843 177.672L199.672 180.5L196.843 183.328C196.648 183.524 196.648 183.84 196.843 184.036C197.039 184.231 197.355 184.231 197.55 184.036L200.732 180.854ZM200.379 180L23.8332 180V181L200.379 181V180Z" fill="black"/>
<line y1="-1.5" x2="88.7887" y2="-1.5" transform="matrix(-0.715817 0.698287 -0.605148 -0.796113 154.477 40)" stroke="black" stroke-width="3"/>
<line x1="92.4219" y1="102" x2="92.4219" y2="180" stroke="#F44336" stroke-width="3" stroke-dasharray="6 6"/>
<line x1="203.027" y1="41.5" x2="154.477" y2="41.5" stroke="black" stroke-width="3"/>
<path d="M92.2452 187L100.272 202.75H84.2183L92.2452 187Z" fill="#F44336"/>
<path d="M124.262 204V192.578H125.59V204H124.262ZM132.59 195.281C133.605 195.281 134.374 195.531 134.895 196.031C135.415 196.526 135.676 197.323 135.676 198.422V204H134.395V198.508C134.395 197.794 134.23 197.26 133.902 196.906C133.579 196.552 133.082 196.375 132.41 196.375C131.462 196.375 130.796 196.643 130.41 197.18C130.025 197.716 129.832 198.495 129.832 199.516V204H128.535V195.438H129.582L129.777 196.672H129.848C130.03 196.37 130.262 196.117 130.543 195.914C130.824 195.706 131.139 195.549 131.488 195.445C131.837 195.336 132.204 195.281 132.59 195.281ZM141.395 204.156C140.311 204.156 139.452 203.786 138.816 203.047C138.186 202.307 137.871 201.208 137.871 199.75C137.871 198.276 138.194 197.164 138.84 196.414C139.486 195.659 140.345 195.281 141.418 195.281C141.871 195.281 142.267 195.341 142.605 195.461C142.944 195.581 143.236 195.742 143.48 195.945C143.725 196.143 143.931 196.37 144.098 196.625H144.191C144.171 196.464 144.15 196.242 144.129 195.961C144.108 195.68 144.098 195.451 144.098 195.273V191.844H145.395V204H144.348L144.152 202.781H144.098C143.936 203.036 143.73 203.268 143.48 203.477C143.236 203.685 142.941 203.852 142.598 203.977C142.259 204.096 141.858 204.156 141.395 204.156ZM141.598 203.078C142.514 203.078 143.163 202.818 143.543 202.297C143.923 201.776 144.113 201.003 144.113 199.977V199.742C144.113 198.654 143.931 197.818 143.566 197.234C143.207 196.651 142.551 196.359 141.598 196.359C140.801 196.359 140.204 196.667 139.809 197.281C139.413 197.891 139.215 198.724 139.215 199.781C139.215 200.833 139.41 201.646 139.801 202.219C140.197 202.792 140.796 203.078 141.598 203.078ZM151.441 195.281C152.171 195.281 152.796 195.443 153.316 195.766C153.837 196.089 154.236 196.542 154.512 197.125C154.788 197.703 154.926 198.38 154.926 199.156V199.961H149.012C149.027 200.966 149.277 201.732 149.762 202.258C150.246 202.784 150.928 203.047 151.809 203.047C152.35 203.047 152.829 202.997 153.246 202.898C153.663 202.799 154.095 202.654 154.543 202.461V203.602C154.111 203.794 153.681 203.935 153.254 204.023C152.832 204.112 152.332 204.156 151.754 204.156C150.931 204.156 150.212 203.99 149.598 203.656C148.988 203.318 148.514 202.823 148.176 202.172C147.837 201.521 147.668 200.724 147.668 199.781C147.668 198.859 147.822 198.062 148.129 197.391C148.441 196.714 148.879 196.193 149.441 195.828C150.009 195.464 150.676 195.281 151.441 195.281ZM151.426 196.344C150.733 196.344 150.181 196.57 149.77 197.023C149.358 197.477 149.113 198.109 149.035 198.922H153.566C153.561 198.411 153.48 197.964 153.324 197.578C153.173 197.188 152.941 196.885 152.629 196.672C152.316 196.453 151.915 196.344 151.426 196.344ZM159.168 199.617L156.207 195.438H157.691L159.949 198.734L162.199 195.438H163.668L160.707 199.617L163.832 204H162.348L159.949 200.508L157.535 204H156.066L159.168 199.617ZM177.832 192.578L173.73 204H172.395L168.293 192.578H169.684L172.355 200.102C172.465 200.404 172.561 200.693 172.645 200.969C172.733 201.245 172.811 201.51 172.879 201.766C172.947 202.021 173.007 202.268 173.059 202.508C173.111 202.268 173.171 202.021 173.238 201.766C173.306 201.505 173.384 201.237 173.473 200.961C173.561 200.68 173.66 200.385 173.77 200.078L176.426 192.578H177.832ZM182.41 195.297C183.431 195.297 184.189 195.526 184.684 195.984C185.178 196.443 185.426 197.174 185.426 198.18V204H184.48L184.23 202.734H184.168C183.928 203.047 183.678 203.31 183.418 203.523C183.158 203.732 182.855 203.891 182.512 204C182.173 204.104 181.757 204.156 181.262 204.156C180.741 204.156 180.277 204.065 179.871 203.883C179.47 203.701 179.152 203.424 178.918 203.055C178.689 202.685 178.574 202.216 178.574 201.648C178.574 200.794 178.913 200.138 179.59 199.68C180.267 199.221 181.298 198.971 182.684 198.93L184.16 198.867V198.344C184.16 197.604 184.001 197.086 183.684 196.789C183.366 196.492 182.918 196.344 182.34 196.344C181.892 196.344 181.465 196.409 181.059 196.539C180.652 196.669 180.267 196.823 179.902 197L179.504 196.016C179.889 195.818 180.332 195.648 180.832 195.508C181.332 195.367 181.858 195.297 182.41 195.297ZM184.145 199.781L182.84 199.836C181.772 199.878 181.02 200.052 180.582 200.359C180.145 200.667 179.926 201.102 179.926 201.664C179.926 202.154 180.074 202.516 180.371 202.75C180.668 202.984 181.061 203.102 181.551 203.102C182.311 203.102 182.934 202.891 183.418 202.469C183.902 202.047 184.145 201.414 184.145 200.57V199.781ZM189.402 204H188.098V191.844H189.402V204ZM199.215 195.438V204H198.152L197.965 202.797H197.895C197.717 203.094 197.488 203.344 197.207 203.547C196.926 203.75 196.608 203.901 196.254 204C195.905 204.104 195.533 204.156 195.137 204.156C194.46 204.156 193.892 204.047 193.434 203.828C192.975 203.609 192.629 203.271 192.395 202.812C192.165 202.354 192.051 201.766 192.051 201.047V195.438H193.363V200.953C193.363 201.667 193.525 202.201 193.848 202.555C194.171 202.904 194.663 203.078 195.324 203.078C195.96 203.078 196.465 202.958 196.84 202.719C197.22 202.479 197.493 202.128 197.66 201.664C197.827 201.195 197.91 200.622 197.91 199.945V195.438H199.215ZM205.254 195.281C205.983 195.281 206.608 195.443 207.129 195.766C207.65 196.089 208.048 196.542 208.324 197.125C208.6 197.703 208.738 198.38 208.738 199.156V199.961H202.824C202.84 200.966 203.09 201.732 203.574 202.258C204.059 202.784 204.741 203.047 205.621 203.047C206.163 203.047 206.642 202.997 207.059 202.898C207.475 202.799 207.908 202.654 208.355 202.461V203.602C207.923 203.794 207.493 203.935 207.066 204.023C206.645 204.112 206.145 204.156 205.566 204.156C204.743 204.156 204.025 203.99 203.41 203.656C202.801 203.318 202.327 202.823 201.988 202.172C201.65 201.521 201.48 200.724 201.48 199.781C201.48 198.859 201.634 198.062 201.941 197.391C202.254 196.714 202.691 196.193 203.254 195.828C203.822 195.464 204.488 195.281 205.254 195.281ZM205.238 196.344C204.546 196.344 203.993 196.57 203.582 197.023C203.171 197.477 202.926 198.109 202.848 198.922H207.379C207.374 198.411 207.293 197.964 207.137 197.578C206.986 197.188 206.754 196.885 206.441 196.672C206.129 196.453 205.728 196.344 205.238 196.344Z" fill="black"/>
<path d="M2.57812 49.4531C2.57812 47.9792 2.86719 46.9036 3.44531 46.2266C4.01823 45.5443 4.84115 45.2031 5.91406 45.2031C6.39844 45.2031 6.85937 45.2839 7.29687 45.4453C7.72917 45.6016 8.11198 45.8568 8.44531 46.2109C8.77344 46.5651 9.03385 47.0312 9.22656 47.6094C9.41406 48.1823 9.50781 48.8854 9.50781 49.7187L9.50781 51.1094L14 51.1094L14 52.4375L2.57812 52.4375L2.57812 49.4531ZM3.71094 49.5781L3.71094 51.1094L8.36719 51.1094L8.36719 49.8672C8.36719 49.138 8.28906 48.5312 8.13281 48.0469C7.97656 47.5573 7.72396 47.1901 7.375 46.9453C7.02083 46.7005 6.55208 46.5781 5.96875 46.5781C5.20833 46.5781 4.64323 46.8203 4.27344 47.3047C3.89844 47.7891 3.71094 48.5469 3.71094 49.5781ZM5.29687 39.8047C5.29687 38.7839 5.52604 38.026 5.98437 37.5312C6.44271 37.0365 7.17448 36.7891 8.17969 36.7891L14 36.7891L14 37.7344L12.7344 37.9844L12.7344 38.0469C13.0469 38.2865 13.3099 38.5365 13.5234 38.7969C13.7318 39.0573 13.8906 39.3594 14 39.7031C14.1042 40.0417 14.1562 40.4583 14.1562 40.9531C14.1562 41.474 14.0651 41.9375 13.8828 42.3437C13.7005 42.7448 13.4245 43.0625 13.0547 43.2969C12.6849 43.526 12.2161 43.6406 11.6484 43.6406C10.7943 43.6406 10.138 43.3021 9.67969 42.625C9.22135 41.9479 8.97135 40.9167 8.92969 39.5312L8.86719 38.0547L8.34375 38.0547C7.60417 38.0547 7.08594 38.2135 6.78906 38.5312C6.49219 38.849 6.34375 39.2969 6.34375 39.875C6.34375 40.3229 6.40885 40.75 6.53906 41.1562C6.66927 41.5625 6.82292 41.9479 7 42.3125L6.01562 42.7109C5.81771 42.3255 5.64844 41.8828 5.50781 41.3828C5.36719 40.8828 5.29687 40.3568 5.29687 39.8047ZM9.78125 38.0703L9.83594 39.375C9.8776 40.4427 10.0521 41.1953 10.3594 41.6328C10.6667 42.0703 11.1016 42.2891 11.6641 42.2891C12.1536 42.2891 12.5156 42.1406 12.75 41.8437C12.9844 41.5469 13.1016 41.1536 13.1016 40.6641C13.1016 39.9036 12.8906 39.2812 12.4687 38.7969C12.0469 38.3125 11.4141 38.0703 10.5703 38.0703L9.78125 38.0703ZM5.4375 35.4687L5.4375 34.0781L10.4062 32.1875C10.6979 32.0781 10.9792 31.9766 11.25 31.8828C11.5156 31.7891 11.7708 31.7057 12.0156 31.6328C12.2604 31.5599 12.4974 31.5026 12.7266 31.4609L12.7266 31.4062C12.4661 31.3333 12.125 31.2292 11.7031 31.0937C11.276 30.9583 10.8411 30.8125 10.3984 30.6562L5.4375 28.8672L5.4375 27.4687L15.2578 31.1953C15.7839 31.3932 16.2422 31.625 16.6328 31.8906C17.0234 32.151 17.3229 32.4687 17.5312 32.8437C17.7448 33.2187 17.8516 33.6719 17.8516 34.2031C17.8516 34.4479 17.8359 34.6641 17.8047 34.8516C17.7786 35.0391 17.7474 35.2005 17.7109 35.3359L16.6719 35.3359C16.6979 35.2214 16.7214 35.0833 16.7422 34.9219C16.763 34.7552 16.7734 34.5833 16.7734 34.4062C16.7734 34.0833 16.7109 33.8047 16.5859 33.5703C16.4661 33.3307 16.2891 33.125 16.0547 32.9531C15.8203 32.7812 15.5417 32.6328 15.2187 32.5078L14.0156 32.0391L5.4375 35.4687ZM9.70312 18.7187C10.4062 18.7187 11.0339 18.8099 11.5859 18.9922C12.138 19.1745 12.6042 19.4375 12.9844 19.7812C13.3646 20.125 13.6562 20.5417 13.8594 21.0312C14.0573 21.5156 14.1562 22.0651 14.1562 22.6797C14.1562 23.2526 14.0573 23.7786 13.8594 24.2578C13.6562 24.7318 13.3646 25.1432 12.9844 25.4922C12.6042 25.8359 12.138 26.1042 11.5859 26.2969C11.0339 26.4844 10.4062 26.5781 9.70312 26.5781C8.76562 26.5781 7.96875 26.4193 7.3125 26.1016C6.65104 25.7839 6.14844 25.3307 5.80469 24.7422C5.45573 24.1484 5.28125 23.4427 5.28125 22.625C5.28125 21.8437 5.45573 21.1615 5.80469 20.5781C6.15364 19.9896 6.65885 19.5339 7.32031 19.2109C7.97656 18.8828 8.77083 18.7187 9.70312 18.7187ZM9.70312 25.2344C10.3906 25.2344 10.987 25.1432 11.4922 24.9609C11.9974 24.7786 12.388 24.4974 12.6641 24.1172C12.9401 23.737 13.0781 23.2474 13.0781 22.6484C13.0781 22.0547 12.9401 21.5677 12.6641 21.1875C12.388 20.8021 11.9974 20.5182 11.4922 20.3359C10.987 20.1536 10.3906 20.0625 9.70312 20.0625C9.02083 20.0625 8.43229 20.1536 7.9375 20.3359C7.4375 20.5182 7.05208 20.7995 6.78125 21.1797C6.51042 21.5599 6.375 22.0521 6.375 22.6562C6.375 23.5469 6.66927 24.2005 7.25781 24.6172C7.84635 25.0286 8.66146 25.2344 9.70312 25.2344ZM5.4375 9.40625L14 9.40625L14 10.4687L12.7969 10.6562L12.7969 10.7266C13.0937 10.9036 13.3437 11.1328 13.5469 11.4141C13.75 11.6953 13.901 12.013 14 12.3672C14.1042 12.7161 14.1562 13.0885 14.1562 13.4844C14.1562 14.1615 14.0469 14.7292 13.8281 15.1875C13.6094 15.6458 13.2708 15.9922 12.8125 16.2266C12.3542 16.4557 11.7656 16.5703 11.0469 16.5703L5.4375 16.5703L5.4375 15.2578L10.9531 15.2578C11.6667 15.2578 12.2005 15.0964 12.5547 14.7734C12.9036 14.4505 13.0781 13.9583 13.0781 13.2969C13.0781 12.6615 12.9583 12.1562 12.7187 11.7812C12.4792 11.401 12.1276 11.1276 11.6641 10.9609C11.1953 10.7943 10.6224 10.7109 9.94531 10.7109L5.4375 10.7109L5.4375 9.40625ZM13.0937 3.89844C13.0937 3.6849 13.0755 3.46615 13.0391 3.24219C13.0026 3.01823 12.9583 2.83594 12.9062 2.69531L13.9141 2.69531C13.9818 2.84635 14.0391 3.05729 14.0859 3.32812C14.1328 3.59375 14.1562 3.85417 14.1562 4.10937C14.1562 4.5625 14.0781 4.97396 13.9219 5.34375C13.7604 5.71354 13.4896 6.01042 13.1094 6.23437C12.7292 6.45312 12.2031 6.5625 11.5312 6.5625L6.45312 6.5625L6.45312 7.78125L5.82031 7.78125L5.3125 6.55469L3.45312 6.03906L3.45312 5.25781L5.4375 5.25781L5.4375 2.75L6.45312 2.75L6.45312 5.25781L11.4922 5.25781C12.0286 5.25781 12.4297 5.13542 12.6953 4.89062C12.9609 4.64062 13.0937 4.3099 13.0937 3.89844Z" fill="black"/>
</svg>
