<svg width="210" height="208" viewBox="0 0 210 208" fill="none" xmlns="http://www.w3.org/2000/svg">
<path d="M24.2754 2L21.3886 7L27.1621 7L24.2754 2ZM23.7754 6.5L23.7754 180L24.7754 180L24.7754 6.5L23.7754 6.5Z" fill="black"/>
<path d="M200.732 180.854C200.928 180.658 200.928 180.342 200.732 180.146L197.55 176.964C197.355 176.769 197.039 176.769 196.843 176.964C196.648 177.16 196.648 177.476 196.843 177.672L199.672 180.5L196.843 183.328C196.648 183.524 196.648 183.84 196.843 184.036C197.039 184.231 197.355 184.231 197.55 184.036L200.732 180.854ZM200.379 180L23.8332 180V181L200.379 181V180Z" fill="black"/>
<line y1="-1.5" x2="88.7887" y2="-1.5" transform="matrix(-0.715817 0.698287 -0.605148 -0.796113 154.477 40)" stroke="black" stroke-width="3"/>
<line x1="92.4219" y1="102" x2="92.4219" y2="180" stroke="black" stroke-width="3"/>
<line x1="203.027" y1="41.5" x2="154.477" y2="41.5" stroke="black" stroke-width="3"/>
<line x1="150.947" y1="40" x2="17.6552" y2="40" stroke="#F44336" stroke-width="2" stroke-dasharray="14 14"/>
<path d="M14.123 71.5L0.220068 80.5933L0.220069 62.4067L14.123 71.5Z" fill="#F44336"/>
<path d="M125.145 204V192.578H126.473V204H125.145ZM133.473 195.281C134.488 195.281 135.257 195.531 135.777 196.031C136.298 196.526 136.559 197.323 136.559 198.422V204H135.277V198.508C135.277 197.794 135.113 197.26 134.785 196.906C134.462 196.552 133.965 196.375 133.293 196.375C132.345 196.375 131.678 196.643 131.293 197.18C130.908 197.716 130.715 198.495 130.715 199.516V204H129.418V195.438H130.465L130.66 196.672H130.73C130.913 196.37 131.145 196.117 131.426 195.914C131.707 195.706 132.022 195.549 132.371 195.445C132.72 195.336 133.087 195.281 133.473 195.281ZM142.277 204.156C141.194 204.156 140.335 203.786 139.699 203.047C139.069 202.307 138.754 201.208 138.754 199.75C138.754 198.276 139.077 197.164 139.723 196.414C140.368 195.659 141.228 195.281 142.301 195.281C142.754 195.281 143.15 195.341 143.488 195.461C143.827 195.581 144.118 195.742 144.363 195.945C144.608 196.143 144.814 196.37 144.98 196.625H145.074C145.053 196.464 145.033 196.242 145.012 195.961C144.991 195.68 144.98 195.451 144.98 195.273V191.844H146.277V204H145.23L145.035 202.781H144.98C144.819 203.036 144.613 203.268 144.363 203.477C144.118 203.685 143.824 203.852 143.48 203.977C143.142 204.096 142.741 204.156 142.277 204.156ZM142.48 203.078C143.397 203.078 144.046 202.818 144.426 202.297C144.806 201.776 144.996 201.003 144.996 199.977V199.742C144.996 198.654 144.814 197.818 144.449 197.234C144.09 196.651 143.434 196.359 142.48 196.359C141.684 196.359 141.087 196.667 140.691 197.281C140.296 197.891 140.098 198.724 140.098 199.781C140.098 200.833 140.293 201.646 140.684 202.219C141.079 202.792 141.678 203.078 142.48 203.078ZM152.324 195.281C153.053 195.281 153.678 195.443 154.199 195.766C154.72 196.089 155.118 196.542 155.395 197.125C155.671 197.703 155.809 198.38 155.809 199.156V199.961H149.895C149.91 200.966 150.16 201.732 150.645 202.258C151.129 202.784 151.811 203.047 152.691 203.047C153.233 203.047 153.712 202.997 154.129 202.898C154.546 202.799 154.978 202.654 155.426 202.461V203.602C154.993 203.794 154.564 203.935 154.137 204.023C153.715 204.112 153.215 204.156 152.637 204.156C151.814 204.156 151.095 203.99 150.48 203.656C149.871 203.318 149.397 202.823 149.059 202.172C148.72 201.521 148.551 200.724 148.551 199.781C148.551 198.859 148.704 198.062 149.012 197.391C149.324 196.714 149.762 196.193 150.324 195.828C150.892 195.464 151.559 195.281 152.324 195.281ZM152.309 196.344C151.616 196.344 151.064 196.57 150.652 197.023C150.241 197.477 149.996 198.109 149.918 198.922H154.449C154.444 198.411 154.363 197.964 154.207 197.578C154.056 197.188 153.824 196.885 153.512 196.672C153.199 196.453 152.798 196.344 152.309 196.344ZM160.051 199.617L157.09 195.438H158.574L160.832 198.734L163.082 195.438H164.551L161.59 199.617L164.715 204H163.23L160.832 200.508L158.418 204H156.949L160.051 199.617ZM178.715 192.578L174.613 204H173.277L169.176 192.578H170.566L173.238 200.102C173.348 200.404 173.444 200.693 173.527 200.969C173.616 201.245 173.694 201.51 173.762 201.766C173.829 202.021 173.889 202.268 173.941 202.508C173.993 202.268 174.053 202.021 174.121 201.766C174.189 201.505 174.267 201.237 174.355 200.961C174.444 200.68 174.543 200.385 174.652 200.078L177.309 192.578H178.715ZM183.293 195.297C184.314 195.297 185.072 195.526 185.566 195.984C186.061 196.443 186.309 197.174 186.309 198.18V204H185.363L185.113 202.734H185.051C184.811 203.047 184.561 203.31 184.301 203.523C184.04 203.732 183.738 203.891 183.395 204C183.056 204.104 182.639 204.156 182.145 204.156C181.624 204.156 181.16 204.065 180.754 203.883C180.353 203.701 180.035 203.424 179.801 203.055C179.572 202.685 179.457 202.216 179.457 201.648C179.457 200.794 179.796 200.138 180.473 199.68C181.15 199.221 182.181 198.971 183.566 198.93L185.043 198.867V198.344C185.043 197.604 184.884 197.086 184.566 196.789C184.249 196.492 183.801 196.344 183.223 196.344C182.775 196.344 182.348 196.409 181.941 196.539C181.535 196.669 181.15 196.823 180.785 197L180.387 196.016C180.772 195.818 181.215 195.648 181.715 195.508C182.215 195.367 182.741 195.297 183.293 195.297ZM185.027 199.781L183.723 199.836C182.655 199.878 181.902 200.052 181.465 200.359C181.027 200.667 180.809 201.102 180.809 201.664C180.809 202.154 180.957 202.516 181.254 202.75C181.551 202.984 181.944 203.102 182.434 203.102C183.194 203.102 183.816 202.891 184.301 202.469C184.785 202.047 185.027 201.414 185.027 200.57V199.781ZM190.285 204H188.98V191.844H190.285V204ZM200.098 195.438V204H199.035L198.848 202.797H198.777C198.6 203.094 198.371 203.344 198.09 203.547C197.809 203.75 197.491 203.901 197.137 204C196.788 204.104 196.415 204.156 196.02 204.156C195.342 204.156 194.775 204.047 194.316 203.828C193.858 203.609 193.512 203.271 193.277 202.812C193.048 202.354 192.934 201.766 192.934 201.047V195.438H194.246V200.953C194.246 201.667 194.408 202.201 194.73 202.555C195.053 202.904 195.546 203.078 196.207 203.078C196.842 203.078 197.348 202.958 197.723 202.719C198.103 202.479 198.376 202.128 198.543 201.664C198.71 201.195 198.793 200.622 198.793 199.945V195.438H200.098ZM206.137 195.281C206.866 195.281 207.491 195.443 208.012 195.766C208.533 196.089 208.931 196.542 209.207 197.125C209.483 197.703 209.621 198.38 209.621 199.156V199.961H203.707C203.723 200.966 203.973 201.732 204.457 202.258C204.941 202.784 205.624 203.047 206.504 203.047C207.046 203.047 207.525 202.997 207.941 202.898C208.358 202.799 208.79 202.654 209.238 202.461V203.602C208.806 203.794 208.376 203.935 207.949 204.023C207.527 204.112 207.027 204.156 206.449 204.156C205.626 204.156 204.908 203.99 204.293 203.656C203.684 203.318 203.21 202.823 202.871 202.172C202.533 201.521 202.363 200.724 202.363 199.781C202.363 198.859 202.517 198.062 202.824 197.391C203.137 196.714 203.574 196.193 204.137 195.828C204.704 195.464 205.371 195.281 206.137 195.281ZM206.121 196.344C205.428 196.344 204.876 196.57 204.465 197.023C204.053 197.477 203.809 198.109 203.73 198.922H208.262C208.257 198.411 208.176 197.964 208.02 197.578C207.868 197.188 207.637 196.885 207.324 196.672C207.012 196.453 206.611 196.344 206.121 196.344Z" fill="black"/>
<path d="M2.57812 56.4531C2.57812 54.9792 2.86719 53.9036 3.44531 53.2266C4.01823 52.5443 4.84115 52.2031 5.91406 52.2031C6.39844 52.2031 6.85937 52.2839 7.29687 52.4453C7.72917 52.6016 8.11198 52.8568 8.44531 53.2109C8.77344 53.5651 9.03385 54.0312 9.22656 54.6094C9.41406 55.1823 9.50781 55.8854 9.50781 56.7187L9.50781 58.1094L14 58.1094L14 59.4375L2.57812 59.4375L2.57812 56.4531ZM3.71094 56.5781L3.71094 58.1094L8.36719 58.1094L8.36719 56.8672C8.36719 56.138 8.28906 55.5312 8.13281 55.0469C7.97656 54.5573 7.72396 54.1901 7.375 53.9453C7.02083 53.7005 6.55208 53.5781 5.96875 53.5781C5.20833 53.5781 4.64323 53.8203 4.27344 54.3047C3.89844 54.7891 3.71094 55.5469 3.71094 56.5781ZM5.29687 46.8047C5.29687 45.7839 5.52604 45.026 5.98437 44.5312C6.44271 44.0365 7.17448 43.7891 8.17969 43.7891L14 43.7891L14 44.7344L12.7344 44.9844L12.7344 45.0469C13.0469 45.2865 13.3099 45.5365 13.5234 45.7969C13.7318 46.0573 13.8906 46.3594 14 46.7031C14.1042 47.0417 14.1562 47.4583 14.1562 47.9531C14.1562 48.474 14.0651 48.9375 13.8828 49.3437C13.7005 49.7448 13.4245 50.0625 13.0547 50.2969C12.6849 50.526 12.2161 50.6406 11.6484 50.6406C10.7943 50.6406 10.138 50.3021 9.67969 49.625C9.22135 48.9479 8.97135 47.9167 8.92969 46.5312L8.86719 45.0547L8.34375 45.0547C7.60417 45.0547 7.08594 45.2135 6.78906 45.5312C6.49219 45.849 6.34375 46.2969 6.34375 46.875C6.34375 47.3229 6.40885 47.75 6.53906 48.1562C6.66927 48.5625 6.82292 48.9479 7 49.3125L6.01562 49.7109C5.81771 49.3255 5.64844 48.8828 5.50781 48.3828C5.36719 47.8828 5.29687 47.3568 5.29687 46.8047ZM9.78125 45.0703L9.83594 46.375C9.8776 47.4427 10.0521 48.1953 10.3594 48.6328C10.6667 49.0703 11.1016 49.2891 11.6641 49.2891C12.1536 49.2891 12.5156 49.1406 12.75 48.8437C12.9844 48.5469 13.1016 48.1536 13.1016 47.6641C13.1016 46.9036 12.8906 46.2812 12.4687 45.7969C12.0469 45.3125 11.4141 45.0703 10.5703 45.0703L9.78125 45.0703ZM5.4375 42.4687L5.4375 41.0781L10.4062 39.1875C10.6979 39.0781 10.9792 38.9766 11.25 38.8828C11.5156 38.7891 11.7708 38.7057 12.0156 38.6328C12.2604 38.5599 12.4974 38.5026 12.7266 38.4609L12.7266 38.4062C12.4661 38.3333 12.125 38.2292 11.7031 38.0937C11.276 37.9583 10.8411 37.8125 10.3984 37.6562L5.4375 35.8672L5.4375 34.4687L15.2578 38.1953C15.7839 38.3932 16.2422 38.625 16.6328 38.8906C17.0234 39.151 17.3229 39.4687 17.5312 39.8437C17.7448 40.2187 17.8516 40.6719 17.8516 41.2031C17.8516 41.4479 17.8359 41.6641 17.8047 41.8516C17.7786 42.0391 17.7474 42.2005 17.7109 42.3359L16.6719 42.3359C16.6979 42.2214 16.7214 42.0833 16.7422 41.9219C16.763 41.7552 16.7734 41.5833 16.7734 41.4062C16.7734 41.0833 16.7109 40.8047 16.5859 40.5703C16.4661 40.3307 16.2891 40.125 16.0547 39.9531C15.8203 39.7812 15.5417 39.6328 15.2187 39.5078L14.0156 39.0391L5.4375 42.4687ZM9.70312 25.7187C10.4062 25.7187 11.0339 25.8099 11.5859 25.9922C12.138 26.1745 12.6042 26.4375 12.9844 26.7812C13.3646 27.125 13.6562 27.5417 13.8594 28.0312C14.0573 28.5156 14.1562 29.0651 14.1562 29.6797C14.1562 30.2526 14.0573 30.7786 13.8594 31.2578C13.6562 31.7318 13.3646 32.1432 12.9844 32.4922C12.6042 32.8359 12.138 33.1042 11.5859 33.2969C11.0339 33.4844 10.4062 33.5781 9.70312 33.5781C8.76562 33.5781 7.96875 33.4193 7.3125 33.1016C6.65104 32.7839 6.14844 32.3307 5.80469 31.7422C5.45573 31.1484 5.28125 30.4427 5.28125 29.625C5.28125 28.8437 5.45573 28.1615 5.80469 27.5781C6.15364 26.9896 6.65885 26.5339 7.32031 26.2109C7.97656 25.8828 8.77083 25.7187 9.70312 25.7187ZM9.70312 32.2344C10.3906 32.2344 10.987 32.1432 11.4922 31.9609C11.9974 31.7786 12.388 31.4974 12.6641 31.1172C12.9401 30.737 13.0781 30.2474 13.0781 29.6484C13.0781 29.0547 12.9401 28.5677 12.6641 28.1875C12.388 27.8021 11.9974 27.5182 11.4922 27.3359C10.987 27.1536 10.3906 27.0625 9.70312 27.0625C9.02083 27.0625 8.43229 27.1536 7.9375 27.3359C7.4375 27.5182 7.05208 27.7995 6.78125 28.1797C6.51042 28.5599 6.375 29.0521 6.375 29.6562C6.375 30.5469 6.66927 31.2005 7.25781 31.6172C7.84635 32.0286 8.66146 32.2344 9.70312 32.2344ZM5.4375 16.4062L14 16.4062L14 17.4687L12.7969 17.6562L12.7969 17.7266C13.0937 17.9036 13.3437 18.1328 13.5469 18.4141C13.75 18.6953 13.901 19.013 14 19.3672C14.1042 19.7161 14.1562 20.0885 14.1562 20.4844C14.1562 21.1615 14.0469 21.7292 13.8281 22.1875C13.6094 22.6458 13.2708 22.9922 12.8125 23.2266C12.3542 23.4557 11.7656 23.5703 11.0469 23.5703L5.4375 23.5703L5.4375 22.2578L10.9531 22.2578C11.6667 22.2578 12.2005 22.0964 12.5547 21.7734C12.9036 21.4505 13.0781 20.9583 13.0781 20.2969C13.0781 19.6615 12.9583 19.1562 12.7187 18.7812C12.4792 18.401 12.1276 18.1276 11.6641 17.9609C11.1953 17.7943 10.6224 17.7109 9.94531 17.7109L5.4375 17.7109L5.4375 16.4062ZM13.0937 10.8984C13.0937 10.6849 13.0755 10.4661 13.0391 10.2422C13.0026 10.0182 12.9583 9.83594 12.9062 9.69531L13.9141 9.69531C13.9818 9.84635 14.0391 10.0573 14.0859 10.3281C14.1328 10.5937 14.1562 10.8542 14.1562 11.1094C14.1562 11.5625 14.0781 11.974 13.9219 12.3437C13.7604 12.7135 13.4896 13.0104 13.1094 13.2344C12.7292 13.4531 12.2031 13.5625 11.5312 13.5625L6.45312 13.5625L6.45312 14.7812L5.82031 14.7812L5.3125 13.5547L3.45312 13.0391L3.45312 12.2578L5.4375 12.2578L5.4375 9.75L6.45312 9.75L6.45312 12.2578L11.4922 12.2578C12.0286 12.2578 12.4297 12.1354 12.6953 11.8906C12.9609 11.6406 13.0937 11.3099 13.0937 10.8984Z" fill="black"/>
<line x1="93.5684" y1="103" x2="17.6537" y2="103" stroke="#F44336" stroke-width="2" stroke-dasharray="14 14"/>
<line y1="-1" x2="83.469" y2="-1" transform="matrix(-0.719136 0.694869 -0.60149 -0.798881 150.947 44)" stroke="#F44336" stroke-width="2" stroke-dasharray="14 14"/>
</svg>
