<svg width="213" height="216" viewBox="0 0 213 216" fill="none" xmlns="http://www.w3.org/2000/svg">
<path d="M24.2754 10L21.3886 15L27.1621 15L24.2754 10ZM23.7754 14.5L23.7754 188L24.7754 188L24.7754 14.5L23.7754 14.5Z" fill="black"/>
<path d="M200.732 188.854C200.928 188.658 200.928 188.342 200.732 188.146L197.55 184.964C197.355 184.769 197.039 184.769 196.843 184.964C196.648 185.16 196.648 185.476 196.843 185.672L199.672 188.5L196.843 191.328C196.648 191.524 196.648 191.84 196.843 192.036C197.039 192.231 197.355 192.231 197.55 192.036L200.732 188.854ZM200.379 188L23.8332 188V189L200.379 189V188Z" fill="black"/>
<line x1="200.379" y1="111.5" x2="90.9206" y2="111.5" stroke="black" stroke-width="3"/>
<line x1="95.334" y1="111" x2="17.6539" y2="111" stroke="#F44336" stroke-width="2" stroke-dasharray="14 14"/>
<line x1="92.4219" y1="110" x2="92.4219" y2="188" stroke="black" stroke-width="3"/>
<path d="M2.57812 47.4531C2.57812 45.9792 2.86719 44.9036 3.44531 44.2266C4.01823 43.5443 4.84115 43.2031 5.91406 43.2031C6.39844 43.2031 6.85937 43.2839 7.29687 43.4453C7.72917 43.6016 8.11198 43.8568 8.44531 44.2109C8.77344 44.5651 9.03385 45.0312 9.22656 45.6094C9.41406 46.1823 9.50781 46.8854 9.50781 47.7187L9.50781 49.1094L14 49.1094L14 50.4375L2.57812 50.4375L2.57812 47.4531ZM3.71094 47.5781L3.71094 49.1094L8.36719 49.1094L8.36719 47.8672C8.36719 47.138 8.28906 46.5312 8.13281 46.0469C7.97656 45.5573 7.72396 45.1901 7.375 44.9453C7.02083 44.7005 6.55208 44.5781 5.96875 44.5781C5.20833 44.5781 4.64323 44.8203 4.27344 45.3047C3.89844 45.7891 3.71094 46.5469 3.71094 47.5781ZM5.29687 37.8047C5.29687 36.7839 5.52604 36.026 5.98437 35.5312C6.44271 35.0365 7.17448 34.7891 8.17969 34.7891L14 34.7891L14 35.7344L12.7344 35.9844L12.7344 36.0469C13.0469 36.2865 13.3099 36.5365 13.5234 36.7969C13.7318 37.0573 13.8906 37.3594 14 37.7031C14.1042 38.0417 14.1562 38.4583 14.1562 38.9531C14.1562 39.474 14.0651 39.9375 13.8828 40.3437C13.7005 40.7448 13.4245 41.0625 13.0547 41.2969C12.6849 41.526 12.2161 41.6406 11.6484 41.6406C10.7943 41.6406 10.138 41.3021 9.67969 40.625C9.22135 39.9479 8.97135 38.9167 8.92969 37.5312L8.86719 36.0547L8.34375 36.0547C7.60417 36.0547 7.08594 36.2135 6.78906 36.5312C6.49219 36.849 6.34375 37.2969 6.34375 37.875C6.34375 38.3229 6.40885 38.75 6.53906 39.1562C6.66927 39.5625 6.82292 39.9479 7 40.3125L6.01562 40.7109C5.81771 40.3255 5.64844 39.8828 5.50781 39.3828C5.36719 38.8828 5.29687 38.3568 5.29687 37.8047ZM9.78125 36.0703L9.83594 37.375C9.8776 38.4427 10.0521 39.1953 10.3594 39.6328C10.6667 40.0703 11.1016 40.2891 11.6641 40.2891C12.1536 40.2891 12.5156 40.1406 12.75 39.8437C12.9844 39.5469 13.1016 39.1536 13.1016 38.6641C13.1016 37.9036 12.8906 37.2812 12.4687 36.7969C12.0469 36.3125 11.4141 36.0703 10.5703 36.0703L9.78125 36.0703ZM5.4375 33.4687L5.4375 32.0781L10.4062 30.1875C10.6979 30.0781 10.9792 29.9766 11.25 29.8828C11.5156 29.7891 11.7708 29.7057 12.0156 29.6328C12.2604 29.5599 12.4974 29.5026 12.7266 29.4609L12.7266 29.4062C12.4661 29.3333 12.125 29.2292 11.7031 29.0937C11.276 28.9583 10.8411 28.8125 10.3984 28.6562L5.4375 26.8672L5.4375 25.4687L15.2578 29.1953C15.7839 29.3932 16.2422 29.625 16.6328 29.8906C17.0234 30.151 17.3229 30.4687 17.5312 30.8437C17.7448 31.2187 17.8516 31.6719 17.8516 32.2031C17.8516 32.4479 17.8359 32.6641 17.8047 32.8516C17.7786 33.0391 17.7474 33.2005 17.7109 33.3359L16.6719 33.3359C16.6979 33.2214 16.7214 33.0833 16.7422 32.9219C16.763 32.7552 16.7734 32.5833 16.7734 32.4062C16.7734 32.0833 16.7109 31.8047 16.5859 31.5703C16.4661 31.3307 16.2891 31.125 16.0547 30.9531C15.8203 30.7812 15.5417 30.6328 15.2187 30.5078L14.0156 30.0391L5.4375 33.4687ZM9.70312 16.7187C10.4062 16.7187 11.0339 16.8099 11.5859 16.9922C12.138 17.1745 12.6042 17.4375 12.9844 17.7812C13.3646 18.125 13.6562 18.5417 13.8594 19.0312C14.0573 19.5156 14.1562 20.0651 14.1562 20.6797C14.1562 21.2526 14.0573 21.7786 13.8594 22.2578C13.6562 22.7318 13.3646 23.1432 12.9844 23.4922C12.6042 23.8359 12.138 24.1042 11.5859 24.2969C11.0339 24.4844 10.4062 24.5781 9.70312 24.5781C8.76562 24.5781 7.96875 24.4193 7.3125 24.1016C6.65104 23.7839 6.14844 23.3307 5.80469 22.7422C5.45573 22.1484 5.28125 21.4427 5.28125 20.625C5.28125 19.8437 5.45573 19.1615 5.80469 18.5781C6.15364 17.9896 6.65885 17.5339 7.32031 17.2109C7.97656 16.8828 8.77083 16.7187 9.70312 16.7187ZM9.70312 23.2344C10.3906 23.2344 10.987 23.1432 11.4922 22.9609C11.9974 22.7786 12.388 22.4974 12.6641 22.1172C12.9401 21.737 13.0781 21.2474 13.0781 20.6484C13.0781 20.0547 12.9401 19.5677 12.6641 19.1875C12.388 18.8021 11.9974 18.5182 11.4922 18.3359C10.987 18.1536 10.3906 18.0625 9.70312 18.0625C9.02083 18.0625 8.43229 18.1536 7.9375 18.3359C7.4375 18.5182 7.05208 18.7995 6.78125 19.1797C6.51042 19.5599 6.375 20.0521 6.375 20.6562C6.375 21.5469 6.66927 22.2005 7.25781 22.6172C7.84635 23.0286 8.66146 23.2344 9.70312 23.2344ZM5.4375 7.40625L14 7.40625L14 8.46875L12.7969 8.65625L12.7969 8.72656C13.0937 8.90365 13.3437 9.13281 13.5469 9.41406C13.75 9.69531 13.901 10.013 14 10.3672C14.1042 10.7161 14.1562 11.0885 14.1562 11.4844C14.1562 12.1615 14.0469 12.7292 13.8281 13.1875C13.6094 13.6458 13.2708 13.9922 12.8125 14.2266C12.3542 14.4557 11.7656 14.5703 11.0469 14.5703L5.4375 14.5703L5.4375 13.2578L10.9531 13.2578C11.6667 13.2578 12.2005 13.0964 12.5547 12.7734C12.9036 12.4505 13.0781 11.9583 13.0781 11.2969C13.0781 10.6615 12.9583 10.1562 12.7187 9.78125C12.4792 9.40104 12.1276 9.1276 11.6641 8.96094C11.1953 8.79427 10.6224 8.71094 9.94531 8.71094L5.4375 8.71094L5.4375 7.40625ZM13.0937 1.89844C13.0937 1.6849 13.0755 1.46615 13.0391 1.24219C13.0026 1.01823 12.9583 0.835937 12.9062 0.695312L13.9141 0.695312C13.9818 0.846353 14.0391 1.05729 14.0859 1.32812C14.1328 1.59375 14.1562 1.85417 14.1562 2.10937C14.1562 2.5625 14.0781 2.97396 13.9219 3.34375C13.7604 3.71354 13.4896 4.01042 13.1094 4.23437C12.7292 4.45312 12.2031 4.5625 11.5312 4.5625L6.45312 4.5625L6.45312 5.78125L5.82031 5.78125L5.3125 4.55469L3.45312 4.03906L3.45312 3.25781L5.4375 3.25781L5.4375 0.75L6.45312 0.75L6.45312 3.25781L11.4922 3.25781C12.0286 3.25781 12.4297 3.13542 12.6953 2.89062C12.9609 2.64062 13.0937 2.3099 13.0937 1.89844Z" fill="black"/>
<path d="M14.123 110.5L0.220068 119.593L0.220069 101.407L14.123 110.5Z" fill="#F44336"/>
<path d="M127.793 212V200.578H129.121V212H127.793ZM136.121 203.281C137.137 203.281 137.905 203.531 138.426 204.031C138.947 204.526 139.207 205.323 139.207 206.422V212H137.926V206.508C137.926 205.794 137.762 205.26 137.434 204.906C137.111 204.552 136.613 204.375 135.941 204.375C134.993 204.375 134.327 204.643 133.941 205.18C133.556 205.716 133.363 206.495 133.363 207.516V212H132.066V203.438H133.113L133.309 204.672H133.379C133.561 204.37 133.793 204.117 134.074 203.914C134.355 203.706 134.671 203.549 135.02 203.445C135.368 203.336 135.736 203.281 136.121 203.281ZM144.926 212.156C143.842 212.156 142.983 211.786 142.348 211.047C141.717 210.307 141.402 209.208 141.402 207.75C141.402 206.276 141.725 205.164 142.371 204.414C143.017 203.659 143.876 203.281 144.949 203.281C145.402 203.281 145.798 203.341 146.137 203.461C146.475 203.581 146.767 203.742 147.012 203.945C147.257 204.143 147.462 204.37 147.629 204.625H147.723C147.702 204.464 147.681 204.242 147.66 203.961C147.639 203.68 147.629 203.451 147.629 203.273V199.844H148.926V212H147.879L147.684 210.781H147.629C147.467 211.036 147.262 211.268 147.012 211.477C146.767 211.685 146.473 211.852 146.129 211.977C145.79 212.096 145.389 212.156 144.926 212.156ZM145.129 211.078C146.046 211.078 146.694 210.818 147.074 210.297C147.454 209.776 147.645 209.003 147.645 207.977V207.742C147.645 206.654 147.462 205.818 147.098 205.234C146.738 204.651 146.082 204.359 145.129 204.359C144.332 204.359 143.736 204.667 143.34 205.281C142.944 205.891 142.746 206.724 142.746 207.781C142.746 208.833 142.941 209.646 143.332 210.219C143.728 210.792 144.327 211.078 145.129 211.078ZM154.973 203.281C155.702 203.281 156.327 203.443 156.848 203.766C157.368 204.089 157.767 204.542 158.043 205.125C158.319 205.703 158.457 206.38 158.457 207.156V207.961H152.543C152.559 208.966 152.809 209.732 153.293 210.258C153.777 210.784 154.46 211.047 155.34 211.047C155.882 211.047 156.361 210.997 156.777 210.898C157.194 210.799 157.626 210.654 158.074 210.461V211.602C157.642 211.794 157.212 211.935 156.785 212.023C156.363 212.112 155.863 212.156 155.285 212.156C154.462 212.156 153.743 211.99 153.129 211.656C152.52 211.318 152.046 210.823 151.707 210.172C151.368 209.521 151.199 208.724 151.199 207.781C151.199 206.859 151.353 206.062 151.66 205.391C151.973 204.714 152.41 204.193 152.973 203.828C153.54 203.464 154.207 203.281 154.973 203.281ZM154.957 204.344C154.264 204.344 153.712 204.57 153.301 205.023C152.889 205.477 152.645 206.109 152.566 206.922H157.098C157.092 206.411 157.012 205.964 156.855 205.578C156.704 205.188 156.473 204.885 156.16 204.672C155.848 204.453 155.447 204.344 154.957 204.344ZM162.699 207.617L159.738 203.438H161.223L163.48 206.734L165.73 203.438H167.199L164.238 207.617L167.363 212H165.879L163.48 208.508L161.066 212H159.598L162.699 207.617ZM181.363 200.578L177.262 212H175.926L171.824 200.578H173.215L175.887 208.102C175.996 208.404 176.092 208.693 176.176 208.969C176.264 209.245 176.342 209.51 176.41 209.766C176.478 210.021 176.538 210.268 176.59 210.508C176.642 210.268 176.702 210.021 176.77 209.766C176.837 209.505 176.915 209.237 177.004 208.961C177.092 208.68 177.191 208.385 177.301 208.078L179.957 200.578H181.363ZM185.941 203.297C186.962 203.297 187.72 203.526 188.215 203.984C188.71 204.443 188.957 205.174 188.957 206.18V212H188.012L187.762 210.734H187.699C187.46 211.047 187.21 211.31 186.949 211.523C186.689 211.732 186.387 211.891 186.043 212C185.704 212.104 185.288 212.156 184.793 212.156C184.272 212.156 183.809 212.065 183.402 211.883C183.001 211.701 182.684 211.424 182.449 211.055C182.22 210.685 182.105 210.216 182.105 209.648C182.105 208.794 182.444 208.138 183.121 207.68C183.798 207.221 184.829 206.971 186.215 206.93L187.691 206.867V206.344C187.691 205.604 187.533 205.086 187.215 204.789C186.897 204.492 186.449 204.344 185.871 204.344C185.423 204.344 184.996 204.409 184.59 204.539C184.184 204.669 183.798 204.823 183.434 205L183.035 204.016C183.421 203.818 183.863 203.648 184.363 203.508C184.863 203.367 185.389 203.297 185.941 203.297ZM187.676 207.781L186.371 207.836C185.303 207.878 184.551 208.052 184.113 208.359C183.676 208.667 183.457 209.102 183.457 209.664C183.457 210.154 183.605 210.516 183.902 210.75C184.199 210.984 184.592 211.102 185.082 211.102C185.842 211.102 186.465 210.891 186.949 210.469C187.434 210.047 187.676 209.414 187.676 208.57V207.781ZM192.934 212H191.629V199.844H192.934V212ZM202.746 203.438V212H201.684L201.496 210.797H201.426C201.249 211.094 201.02 211.344 200.738 211.547C200.457 211.75 200.139 211.901 199.785 212C199.436 212.104 199.064 212.156 198.668 212.156C197.991 212.156 197.423 212.047 196.965 211.828C196.507 211.609 196.16 211.271 195.926 210.812C195.697 210.354 195.582 209.766 195.582 209.047V203.438H196.895V208.953C196.895 209.667 197.056 210.201 197.379 210.555C197.702 210.904 198.194 211.078 198.855 211.078C199.491 211.078 199.996 210.958 200.371 210.719C200.751 210.479 201.025 210.128 201.191 209.664C201.358 209.195 201.441 208.622 201.441 207.945V203.438H202.746ZM208.785 203.281C209.514 203.281 210.139 203.443 210.66 203.766C211.181 204.089 211.579 204.542 211.855 205.125C212.132 205.703 212.27 206.38 212.27 207.156V207.961H206.355C206.371 208.966 206.621 209.732 207.105 210.258C207.59 210.784 208.272 211.047 209.152 211.047C209.694 211.047 210.173 210.997 210.59 210.898C211.007 210.799 211.439 210.654 211.887 210.461V211.602C211.454 211.794 211.025 211.935 210.598 212.023C210.176 212.112 209.676 212.156 209.098 212.156C208.275 212.156 207.556 211.99 206.941 211.656C206.332 211.318 205.858 210.823 205.52 210.172C205.181 209.521 205.012 208.724 205.012 207.781C205.012 206.859 205.165 206.062 205.473 205.391C205.785 204.714 206.223 204.193 206.785 203.828C207.353 203.464 208.02 203.281 208.785 203.281ZM208.77 204.344C208.077 204.344 207.525 204.57 207.113 205.023C206.702 205.477 206.457 206.109 206.379 206.922H210.91C210.905 206.411 210.824 205.964 210.668 205.578C210.517 205.188 210.285 204.885 209.973 204.672C209.66 204.453 209.259 204.344 208.77 204.344Z" fill="black"/>
</svg>
