<svg fill="none" height="208" viewBox="0 0 210 208" width="210" xmlns="http://www.w3.org/2000/svg"><path d="m24.2754 2-2.8868 5h5.7735zm-.5 4.5v173.5h1v-173.5z" fill="#000"/><path d="m200.732 180.854c.196-.196.196-.512 0-.708l-3.182-3.182c-.195-.195-.511-.195-.707 0-.195.196-.195.512 0 .708l2.829 2.828-2.829 2.828c-.195.196-.195.512 0 .708.196.195.512.195.707 0zm-.353-.854h-176.5458v1h176.5458z" fill="#000"/><g stroke="#000" stroke-width="3"><path d="m0-1.5h88.7887" transform="matrix(-.715817 .698287 -.605148 -.796113 154.477 40)"/><path d="m92.4219 102v78"/><path d="m203.027 41.5h-48.55"/></g><path d="m93.5684 103h-75.9147" stroke="#f44336" stroke-dasharray="14 14" stroke-width="2"/><path d="m14.123 102.5-13.902932 9.093.000001-18.1863z" fill="#f44336"/><path d="m125.145 204v-11.422h1.328v11.422zm8.328-8.719c1.015 0 1.784.25 2.304.75.521.495.782 1.292.782 2.391v5.578h-1.282v-5.492c0-.714-.164-1.248-.492-1.602-.323-.354-.82-.531-1.492-.531-.948 0-1.615.268-2 .805-.385.536-.578 1.315-.578 2.336v4.484h-1.297v-8.562h1.047l.195 1.234h.07c.183-.302.415-.555.696-.758.281-.208.596-.365.945-.469.349-.109.716-.164 1.102-.164zm8.804 8.875c-1.083 0-1.942-.37-2.578-1.109-.63-.74-.945-1.839-.945-3.297 0-1.474.323-2.586.969-3.336.645-.755 1.505-1.133 2.578-1.133.453 0 .849.06 1.187.18.339.12.63.281.875.484.245.198.451.425.617.68h.094c-.021-.161-.041-.383-.062-.664s-.032-.51-.032-.688v-3.429h1.297v12.156h-1.047l-.195-1.219h-.055c-.161.255-.367.487-.617.696-.245.208-.539.375-.883.5-.338.119-.739.179-1.203.179zm.203-1.078c.917 0 1.566-.26 1.946-.781s.57-1.294.57-2.32v-.235c0-1.088-.182-1.924-.547-2.508-.359-.583-1.015-.875-1.969-.875-.796 0-1.393.308-1.789.922-.395.61-.593 1.443-.593 2.5 0 1.052.195 1.865.586 2.438.395.573.994.859 1.796.859zm9.844-7.797c.729 0 1.354.162 1.875.485s.919.776 1.196 1.359c.276.578.414 1.255.414 2.031v.805h-5.914c.015 1.005.265 1.771.75 2.297.484.526 1.166.789 2.046.789.542 0 1.021-.05 1.438-.149s.849-.244 1.297-.437v1.141c-.433.192-.862.333-1.289.421-.422.089-.922.133-1.5.133-.823 0-1.542-.166-2.157-.5-.609-.338-1.083-.833-1.421-1.484-.339-.651-.508-1.448-.508-2.391 0-.922.153-1.719.461-2.39.312-.677.75-1.198 1.312-1.563.568-.364 1.235-.547 2-.547zm-.015 1.063c-.693 0-1.245.226-1.657.679-.411.454-.656 1.086-.734 1.899h4.531c-.005-.511-.086-.958-.242-1.344-.151-.39-.383-.693-.695-.906-.313-.219-.714-.328-1.203-.328zm7.742 3.273-2.961-4.179h1.484l2.258 3.296 2.25-3.296h1.469l-2.961 4.179 3.125 4.383h-1.485l-2.398-3.492-2.414 3.492h-1.469zm18.664-7.039-4.102 11.422h-1.336l-4.101-11.422h1.39l2.672 7.524c.11.302.206.591.289.867.089.276.167.541.235.797.067.255.127.502.179.742.052-.24.112-.487.18-.742.068-.261.146-.529.234-.805.089-.281.188-.576.297-.883l2.657-7.5zm4.578 2.719c1.021 0 1.779.229 2.273.687.495.459.743 1.19.743 2.196v5.82h-.946l-.25-1.266h-.062c-.24.313-.49.576-.75.789-.261.209-.563.368-.906.477-.339.104-.756.156-1.25.156-.521 0-.985-.091-1.391-.273-.401-.182-.719-.459-.953-.828-.229-.37-.344-.839-.344-1.407 0-.854.339-1.51 1.016-1.968.677-.459 1.708-.709 3.093-.75l1.477-.063v-.523c0-.74-.159-1.258-.477-1.555-.317-.297-.765-.445-1.343-.445-.448 0-.875.065-1.282.195-.406.13-.791.284-1.156.461l-.398-.984c.385-.198.828-.368 1.328-.508.5-.141 1.026-.211 1.578-.211zm1.734 4.484-1.304.055c-1.068.042-1.821.216-2.258.523-.438.308-.656.743-.656 1.305 0 .49.148.852.445 1.086s.69.352 1.18.352c.76 0 1.382-.211 1.867-.633.484-.422.726-1.055.726-1.899zm5.258 4.219h-1.305v-12.156h1.305zm9.813-8.562v8.562h-1.063l-.187-1.203h-.071c-.177.297-.406.547-.687.75s-.599.354-.953.453c-.349.104-.722.156-1.117.156-.678 0-1.245-.109-1.704-.328-.458-.219-.804-.557-1.039-1.016-.229-.458-.343-1.046-.343-1.765v-5.609h1.312v5.515c0 .714.162 1.248.484 1.602.323.349.816.523 1.477.523.635 0 1.141-.12 1.516-.359.38-.24.653-.591.82-1.055.167-.469.25-1.042.25-1.719v-4.507zm6.039-.157c.729 0 1.354.162 1.875.485s.919.776 1.195 1.359c.276.578.414 1.255.414 2.031v.805h-5.914c.016 1.005.266 1.771.75 2.297s1.167.789 2.047.789c.542 0 1.021-.05 1.437-.149.417-.099.849-.244 1.297-.437v1.141c-.432.192-.862.333-1.289.421-.422.089-.922.133-1.5.133-.823 0-1.541-.166-2.156-.5-.609-.338-1.083-.833-1.422-1.484-.338-.651-.508-1.448-.508-2.391 0-.922.154-1.719.461-2.39.313-.677.75-1.198 1.313-1.563.567-.364 1.234-.547 2-.547zm-.016 1.063c-.693 0-1.245.226-1.656.679-.412.454-.656 1.086-.735 1.899h4.532c-.005-.511-.086-.958-.242-1.344-.152-.39-.383-.693-.696-.906-.312-.219-.713-.328-1.203-.328z" fill="#000"/><path d="m2.57812 56.4531c0-1.4739.28907-2.5495.86719-3.2265.57292-.6823 1.39584-1.0235 2.46875-1.0235.48438 0 .94531.0808 1.38281.2422.4323.1563.81511.4115 1.14844.7656.32813.3542.58854.8203.78125 1.3985.1875.5729.28125 1.276.28125 2.1093v1.3907h4.49219v1.3281h-11.42188zm1.13282.125v1.5313h4.65625v-1.2422c0-.7292-.07813-1.336-.23438-1.8203-.15625-.4896-.40885-.8568-.75781-1.1016-.35417-.2448-.82292-.3672-1.40625-.3672-.76042 0-1.32552.2422-1.69531.7266-.375.4844-.5625 1.2422-.5625 2.2734zm1.58593-9.7734c0-1.0208.22917-1.7787.6875-2.2735.45834-.4947 1.19011-.7421 2.19532-.7421h5.82031v.9453l-1.2656.25v.0625c.3125.2396.5755.4896.789.75.2084.2604.3672.5625.4766.9062.1042.3386.1562.7552.1562 1.25 0 .5209-.0911.9844-.2734 1.3906-.1823.4011-.4583.7188-.8281.9532-.3698.2291-.8386.3437-1.4063.3437-.8541 0-1.5104-.3385-1.96871-1.0156-.45834-.6771-.70834-1.7083-.75-3.0938l-.0625-1.4765h-.52344c-.73958 0-1.25781.1588-1.55469.4765-.29687.3178-.44531.7657-.44531 1.3438 0 .4479.0651.875.19531 1.2812.13021.4063.28386.7917.46094 1.1563l-.98438.3984c-.19791-.3854-.36718-.8281-.50781-1.3281-.14062-.5-.21094-1.026-.21094-1.5781zm4.48438-1.7344.05469 1.3047c.04166 1.0677.21616 1.8203.52346 2.2578s.7422.6563 1.3047.6563c.4895 0 .8515-.1485 1.0859-.4454.2344-.2968.3516-.6901.3516-1.1796 0-.7605-.211-1.3829-.6329-1.8672-.4218-.4844-1.0546-.7266-1.8984-.7266zm-4.34375-2.6016v-1.3906l4.9687-1.8906c.2917-.1094.573-.2109.8438-.3047.2656-.0937.5208-.1771.7656-.25s.4818-.1302.711-.1719v-.0547c-.2605-.0729-.6016-.177-1.0235-.3125-.4271-.1354-.862-.2812-1.3047-.4375l-4.9609-1.789v-1.3985l9.8203 3.7266c.5261.1979.9844.4297 1.375.6953.3906.2604.6901.5781.8984.9531.2136.375.3204.8282.3204 1.3594 0 .2448-.0157.461-.0469.6485-.0261.1875-.0573.3489-.0938.4843h-1.039c.026-.1145.0495-.2526.0703-.414.0208-.1667.0312-.3386.0312-.5157 0-.3229-.0625-.6015-.1875-.8359-.1198-.2396-.2968-.4453-.5312-.6172s-.513-.3203-.836-.4453l-1.2031-.4687zm4.26562-16.75c.70308 0 1.33078.0912 1.88278.2735.5521.1823 1.0183.4453 1.3985.789.3802.3438.6718.7605.875 1.25.1979.4844.2968 1.0339.2968 1.6485 0 .5729-.0989 1.0989-.2968 1.5781-.2032.474-.4948.8854-.875 1.2344-.3802.3437-.8464.612-1.3985.8047-.552.1875-1.1797.2812-1.88278.2812-.9375 0-1.73437-.1588-2.39062-.4765-.66146-.3177-1.16406-.7709-1.50781-1.3594-.34896-.5938-.52344-1.2995-.52344-2.1172 0-.7813.17448-1.4635.52344-2.0469.34895-.5885.85416-1.0442 1.51562-1.3672.65625-.3281 1.45052-.4922 2.38281-.4922zm0 6.5157c.68748 0 1.28388-.0912 1.78908-.2735s.8958-.4635 1.1719-.8437c.276-.3802.414-.8698.414-1.4688 0-.5937-.138-1.0807-.414-1.4609-.2761-.3854-.6667-.6693-1.1719-.8516s-1.1016-.2734-1.78908-.2734c-.68229 0-1.27083.0911-1.76562.2734-.5.1823-.88542.4636-1.15625.8438s-.40625.8724-.40625 1.4765c0 .8907.29427 1.5443.88281 1.961.58854.4114 1.40365.6172 2.44531.6172zm-4.26562-15.8282h8.5625v1.0625l-1.2031.1875v.0704c.2968.177.5468.4062.75.6875.2031.2812.3541.5989.4531.9531.1042.3489.1562.7213.1562 1.1172 0 .6771-.1093 1.2448-.3281 1.7031-.2187.4583-.5573.8047-1.0156 1.0391-.4583.2291-1.0469.3437-1.7656.3437h-5.6094v-1.3125h5.5156c.7136 0 1.2474-.1614 1.6016-.4844.3489-.3229.5234-.8151.5234-1.4765 0-.6354-.1198-1.1407-.3594-1.5157-.2395-.3802-.5911-.6536-1.0546-.8203-.4688-.1666-1.0417-.25-1.71879-.25h-4.50781zm7.6562-5.5078c0-.2135-.0182-.4323-.0546-.6562-.0365-.224-.0808-.40626-.1329-.54689h1.0079c.0677.15104.125.36199.1718.63279.0469.2656.0703.5261.0703.7813 0 .4531-.0781.8646-.2343 1.2343-.1615.3698-.4323.6667-.8125.8907-.3802.2187-.9063.3281-1.5782.3281h-5.07808v1.2187h-.63281l-.50781-1.2265-1.85938-.5156v-.7813h1.98438v-2.5078h1.01562v2.5078h5.03908c.5364 0 .9375-.1224 1.2031-.3672.2656-.25.3984-.5807.3984-.9922z" fill="#000"/></svg>