<svg width="217" height="216" viewBox="0 0 217 216" fill="none" xmlns="http://www.w3.org/2000/svg">
<path d="M24.2754 10L21.3886 15L27.1621 15L24.2754 10ZM23.7754 14.5L23.7754 188L24.7754 188L24.7754 14.5L23.7754 14.5Z" fill="black"/>
<path d="M200.732 188.854C200.928 188.658 200.928 188.342 200.732 188.146L197.55 184.964C197.355 184.769 197.039 184.769 196.843 184.964C196.648 185.16 196.648 185.476 196.843 185.672L199.672 188.5L196.843 191.328C196.648 191.524 196.648 191.84 196.843 192.036C197.039 192.231 197.355 192.231 197.55 192.036L200.732 188.854ZM200.379 188L23.8332 188V189L200.379 189V188Z" fill="black"/>
<line x1="200.379" y1="111.5" x2="90.9206" y2="111.5" stroke="black" stroke-width="3"/>
<line x1="92.4219" y1="110" x2="92.4219" y2="188" stroke="#F44336" stroke-width="3" stroke-dasharray="6 6"/>
<path d="M132.207 212V200.578H133.535V212H132.207ZM140.535 203.281C141.551 203.281 142.319 203.531 142.84 204.031C143.361 204.526 143.621 205.323 143.621 206.422V212H142.34V206.508C142.34 205.794 142.176 205.26 141.848 204.906C141.525 204.552 141.027 204.375 140.355 204.375C139.408 204.375 138.741 204.643 138.355 205.18C137.97 205.716 137.777 206.495 137.777 207.516V212H136.48V203.438H137.527L137.723 204.672H137.793C137.975 204.37 138.207 204.117 138.488 203.914C138.77 203.706 139.085 203.549 139.434 203.445C139.783 203.336 140.15 203.281 140.535 203.281ZM149.34 212.156C148.257 212.156 147.397 211.786 146.762 211.047C146.132 210.307 145.816 209.208 145.816 207.75C145.816 206.276 146.139 205.164 146.785 204.414C147.431 203.659 148.29 203.281 149.363 203.281C149.816 203.281 150.212 203.341 150.551 203.461C150.889 203.581 151.181 203.742 151.426 203.945C151.671 204.143 151.876 204.37 152.043 204.625H152.137C152.116 204.464 152.095 204.242 152.074 203.961C152.053 203.68 152.043 203.451 152.043 203.273V199.844H153.34V212H152.293L152.098 210.781H152.043C151.882 211.036 151.676 211.268 151.426 211.477C151.181 211.685 150.887 211.852 150.543 211.977C150.204 212.096 149.803 212.156 149.34 212.156ZM149.543 211.078C150.46 211.078 151.108 210.818 151.488 210.297C151.868 209.776 152.059 209.003 152.059 207.977V207.742C152.059 206.654 151.876 205.818 151.512 205.234C151.152 204.651 150.496 204.359 149.543 204.359C148.746 204.359 148.15 204.667 147.754 205.281C147.358 205.891 147.16 206.724 147.16 207.781C147.16 208.833 147.355 209.646 147.746 210.219C148.142 210.792 148.741 211.078 149.543 211.078ZM159.387 203.281C160.116 203.281 160.741 203.443 161.262 203.766C161.783 204.089 162.181 204.542 162.457 205.125C162.733 205.703 162.871 206.38 162.871 207.156V207.961H156.957C156.973 208.966 157.223 209.732 157.707 210.258C158.191 210.784 158.874 211.047 159.754 211.047C160.296 211.047 160.775 210.997 161.191 210.898C161.608 210.799 162.04 210.654 162.488 210.461V211.602C162.056 211.794 161.626 211.935 161.199 212.023C160.777 212.112 160.277 212.156 159.699 212.156C158.876 212.156 158.158 211.99 157.543 211.656C156.934 211.318 156.46 210.823 156.121 210.172C155.783 209.521 155.613 208.724 155.613 207.781C155.613 206.859 155.767 206.062 156.074 205.391C156.387 204.714 156.824 204.193 157.387 203.828C157.954 203.464 158.621 203.281 159.387 203.281ZM159.371 204.344C158.678 204.344 158.126 204.57 157.715 205.023C157.303 205.477 157.059 206.109 156.98 206.922H161.512C161.507 206.411 161.426 205.964 161.27 205.578C161.118 205.188 160.887 204.885 160.574 204.672C160.262 204.453 159.861 204.344 159.371 204.344ZM167.113 207.617L164.152 203.438H165.637L167.895 206.734L170.145 203.438H171.613L168.652 207.617L171.777 212H170.293L167.895 208.508L165.48 212H164.012L167.113 207.617ZM185.777 200.578L181.676 212H180.34L176.238 200.578H177.629L180.301 208.102C180.41 208.404 180.507 208.693 180.59 208.969C180.678 209.245 180.757 209.51 180.824 209.766C180.892 210.021 180.952 210.268 181.004 210.508C181.056 210.268 181.116 210.021 181.184 209.766C181.251 209.505 181.329 209.237 181.418 208.961C181.507 208.68 181.605 208.385 181.715 208.078L184.371 200.578H185.777ZM190.355 203.297C191.376 203.297 192.134 203.526 192.629 203.984C193.124 204.443 193.371 205.174 193.371 206.18V212H192.426L192.176 210.734H192.113C191.874 211.047 191.624 211.31 191.363 211.523C191.103 211.732 190.801 211.891 190.457 212C190.118 212.104 189.702 212.156 189.207 212.156C188.686 212.156 188.223 212.065 187.816 211.883C187.415 211.701 187.098 211.424 186.863 211.055C186.634 210.685 186.52 210.216 186.52 209.648C186.52 208.794 186.858 208.138 187.535 207.68C188.212 207.221 189.243 206.971 190.629 206.93L192.105 206.867V206.344C192.105 205.604 191.947 205.086 191.629 204.789C191.311 204.492 190.863 204.344 190.285 204.344C189.837 204.344 189.41 204.409 189.004 204.539C188.598 204.669 188.212 204.823 187.848 205L187.449 204.016C187.835 203.818 188.277 203.648 188.777 203.508C189.277 203.367 189.803 203.297 190.355 203.297ZM192.09 207.781L190.785 207.836C189.717 207.878 188.965 208.052 188.527 208.359C188.09 208.667 187.871 209.102 187.871 209.664C187.871 210.154 188.02 210.516 188.316 210.75C188.613 210.984 189.007 211.102 189.496 211.102C190.257 211.102 190.879 210.891 191.363 210.469C191.848 210.047 192.09 209.414 192.09 208.57V207.781ZM197.348 212H196.043V199.844H197.348V212ZM207.16 203.438V212H206.098L205.91 210.797H205.84C205.663 211.094 205.434 211.344 205.152 211.547C204.871 211.75 204.553 211.901 204.199 212C203.85 212.104 203.478 212.156 203.082 212.156C202.405 212.156 201.837 212.047 201.379 211.828C200.921 211.609 200.574 211.271 200.34 210.812C200.111 210.354 199.996 209.766 199.996 209.047V203.438H201.309V208.953C201.309 209.667 201.47 210.201 201.793 210.555C202.116 210.904 202.608 211.078 203.27 211.078C203.905 211.078 204.41 210.958 204.785 210.719C205.165 210.479 205.439 210.128 205.605 209.664C205.772 209.195 205.855 208.622 205.855 207.945V203.438H207.16ZM213.199 203.281C213.928 203.281 214.553 203.443 215.074 203.766C215.595 204.089 215.993 204.542 216.27 205.125C216.546 205.703 216.684 206.38 216.684 207.156V207.961H210.77C210.785 208.966 211.035 209.732 211.52 210.258C212.004 210.784 212.686 211.047 213.566 211.047C214.108 211.047 214.587 210.997 215.004 210.898C215.421 210.799 215.853 210.654 216.301 210.461V211.602C215.868 211.794 215.439 211.935 215.012 212.023C214.59 212.112 214.09 212.156 213.512 212.156C212.689 212.156 211.97 211.99 211.355 211.656C210.746 211.318 210.272 210.823 209.934 210.172C209.595 209.521 209.426 208.724 209.426 207.781C209.426 206.859 209.579 206.062 209.887 205.391C210.199 204.714 210.637 204.193 211.199 203.828C211.767 203.464 212.434 203.281 213.199 203.281ZM213.184 204.344C212.491 204.344 211.939 204.57 211.527 205.023C211.116 205.477 210.871 206.109 210.793 206.922H215.324C215.319 206.411 215.238 205.964 215.082 205.578C214.931 205.188 214.699 204.885 214.387 204.672C214.074 204.453 213.673 204.344 213.184 204.344Z" fill="black"/>
<path d="M2.57812 47.4531C2.57812 45.9792 2.86719 44.9036 3.44531 44.2266C4.01823 43.5443 4.84115 43.2031 5.91406 43.2031C6.39844 43.2031 6.85937 43.2839 7.29687 43.4453C7.72917 43.6016 8.11198 43.8568 8.44531 44.2109C8.77344 44.5651 9.03385 45.0312 9.22656 45.6094C9.41406 46.1823 9.50781 46.8854 9.50781 47.7187L9.50781 49.1094L14 49.1094L14 50.4375L2.57812 50.4375L2.57812 47.4531ZM3.71094 47.5781L3.71094 49.1094L8.36719 49.1094L8.36719 47.8672C8.36719 47.138 8.28906 46.5312 8.13281 46.0469C7.97656 45.5573 7.72396 45.1901 7.375 44.9453C7.02083 44.7005 6.55208 44.5781 5.96875 44.5781C5.20833 44.5781 4.64323 44.8203 4.27344 45.3047C3.89844 45.7891 3.71094 46.5469 3.71094 47.5781ZM5.29687 37.8047C5.29687 36.7839 5.52604 36.026 5.98437 35.5312C6.44271 35.0365 7.17448 34.7891 8.17969 34.7891L14 34.7891L14 35.7344L12.7344 35.9844L12.7344 36.0469C13.0469 36.2865 13.3099 36.5365 13.5234 36.7969C13.7318 37.0573 13.8906 37.3594 14 37.7031C14.1042 38.0417 14.1562 38.4583 14.1562 38.9531C14.1562 39.474 14.0651 39.9375 13.8828 40.3437C13.7005 40.7448 13.4245 41.0625 13.0547 41.2969C12.6849 41.526 12.2161 41.6406 11.6484 41.6406C10.7943 41.6406 10.138 41.3021 9.67969 40.625C9.22135 39.9479 8.97135 38.9167 8.92969 37.5312L8.86719 36.0547L8.34375 36.0547C7.60417 36.0547 7.08594 36.2135 6.78906 36.5312C6.49219 36.849 6.34375 37.2969 6.34375 37.875C6.34375 38.3229 6.40885 38.75 6.53906 39.1562C6.66927 39.5625 6.82292 39.9479 7 40.3125L6.01562 40.7109C5.81771 40.3255 5.64844 39.8828 5.50781 39.3828C5.36719 38.8828 5.29687 38.3568 5.29687 37.8047ZM9.78125 36.0703L9.83594 37.375C9.8776 38.4427 10.0521 39.1953 10.3594 39.6328C10.6667 40.0703 11.1016 40.2891 11.6641 40.2891C12.1536 40.2891 12.5156 40.1406 12.75 39.8437C12.9844 39.5469 13.1016 39.1536 13.1016 38.6641C13.1016 37.9036 12.8906 37.2812 12.4687 36.7969C12.0469 36.3125 11.4141 36.0703 10.5703 36.0703L9.78125 36.0703ZM5.4375 33.4687L5.4375 32.0781L10.4062 30.1875C10.6979 30.0781 10.9792 29.9766 11.25 29.8828C11.5156 29.7891 11.7708 29.7057 12.0156 29.6328C12.2604 29.5599 12.4974 29.5026 12.7266 29.4609L12.7266 29.4062C12.4661 29.3333 12.125 29.2292 11.7031 29.0937C11.276 28.9583 10.8411 28.8125 10.3984 28.6562L5.4375 26.8672L5.4375 25.4687L15.2578 29.1953C15.7839 29.3932 16.2422 29.625 16.6328 29.8906C17.0234 30.151 17.3229 30.4687 17.5312 30.8437C17.7448 31.2187 17.8516 31.6719 17.8516 32.2031C17.8516 32.4479 17.8359 32.6641 17.8047 32.8516C17.7786 33.0391 17.7474 33.2005 17.7109 33.3359L16.6719 33.3359C16.6979 33.2214 16.7214 33.0833 16.7422 32.9219C16.763 32.7552 16.7734 32.5833 16.7734 32.4062C16.7734 32.0833 16.7109 31.8047 16.5859 31.5703C16.4661 31.3307 16.2891 31.125 16.0547 30.9531C15.8203 30.7812 15.5417 30.6328 15.2187 30.5078L14.0156 30.0391L5.4375 33.4687ZM9.70312 16.7187C10.4062 16.7187 11.0339 16.8099 11.5859 16.9922C12.138 17.1745 12.6042 17.4375 12.9844 17.7812C13.3646 18.125 13.6562 18.5417 13.8594 19.0312C14.0573 19.5156 14.1562 20.0651 14.1562 20.6797C14.1562 21.2526 14.0573 21.7786 13.8594 22.2578C13.6562 22.7318 13.3646 23.1432 12.9844 23.4922C12.6042 23.8359 12.138 24.1042 11.5859 24.2969C11.0339 24.4844 10.4062 24.5781 9.70312 24.5781C8.76562 24.5781 7.96875 24.4193 7.3125 24.1016C6.65104 23.7839 6.14844 23.3307 5.80469 22.7422C5.45573 22.1484 5.28125 21.4427 5.28125 20.625C5.28125 19.8437 5.45573 19.1615 5.80469 18.5781C6.15364 17.9896 6.65885 17.5339 7.32031 17.2109C7.97656 16.8828 8.77083 16.7187 9.70312 16.7187ZM9.70312 23.2344C10.3906 23.2344 10.987 23.1432 11.4922 22.9609C11.9974 22.7786 12.388 22.4974 12.6641 22.1172C12.9401 21.737 13.0781 21.2474 13.0781 20.6484C13.0781 20.0547 12.9401 19.5677 12.6641 19.1875C12.388 18.8021 11.9974 18.5182 11.4922 18.3359C10.987 18.1536 10.3906 18.0625 9.70312 18.0625C9.02083 18.0625 8.43229 18.1536 7.9375 18.3359C7.4375 18.5182 7.05208 18.7995 6.78125 19.1797C6.51042 19.5599 6.375 20.0521 6.375 20.6562C6.375 21.5469 6.66927 22.2005 7.25781 22.6172C7.84635 23.0286 8.66146 23.2344 9.70312 23.2344ZM5.4375 7.40625L14 7.40625L14 8.46875L12.7969 8.65625L12.7969 8.72656C13.0937 8.90365 13.3437 9.13281 13.5469 9.41406C13.75 9.69531 13.901 10.013 14 10.3672C14.1042 10.7161 14.1562 11.0885 14.1562 11.4844C14.1562 12.1615 14.0469 12.7292 13.8281 13.1875C13.6094 13.6458 13.2708 13.9922 12.8125 14.2266C12.3542 14.4557 11.7656 14.5703 11.0469 14.5703L5.4375 14.5703L5.4375 13.2578L10.9531 13.2578C11.6667 13.2578 12.2005 13.0964 12.5547 12.7734C12.9036 12.4505 13.0781 11.9583 13.0781 11.2969C13.0781 10.6615 12.9583 10.1562 12.7187 9.78125C12.4792 9.40104 12.1276 9.1276 11.6641 8.96094C11.1953 8.79427 10.6224 8.71094 9.94531 8.71094L5.4375 8.71094L5.4375 7.40625ZM13.0937 1.89844C13.0937 1.6849 13.0755 1.46615 13.0391 1.24219C13.0026 1.01823 12.9583 0.835937 12.9062 0.695312L13.9141 0.695312C13.9818 0.846353 14.0391 1.05729 14.0859 1.32812C14.1328 1.59375 14.1562 1.85417 14.1562 2.10937C14.1562 2.5625 14.0781 2.97396 13.9219 3.34375C13.7604 3.71354 13.4896 4.01042 13.1094 4.23437C12.7292 4.45312 12.2031 4.5625 11.5312 4.5625L6.45312 4.5625L6.45312 5.78125L5.82031 5.78125L5.3125 4.55469L3.45312 4.03906L3.45312 3.25781L5.4375 3.25781L5.4375 0.75L6.45312 0.75L6.45312 3.25781L11.4922 3.25781C12.0286 3.25781 12.4297 3.13542 12.6953 2.89062C12.9609 2.64062 13.0937 2.3099 13.0937 1.89844Z" fill="black"/>
<path d="M91.3624 196L99.3893 211.75H83.3355L91.3624 196Z" fill="#F44336"/>
</svg>
