<svg width="57" height="57" viewBox="0 0 57 57" fill="none" xmlns="http://www.w3.org/2000/svg">
<path d="M9.50078 24.7V22.8H7.60078V24.7H9.50078ZM24.7008 24.7V22.8H22.8008V24.7H24.7008ZM24.7008 39.9H22.8008V41.8H24.7008V39.9ZM51.3008 13.3H53.2008V12.5134L52.646 11.9548L51.3008 13.3ZM39.9008 1.9L41.246 0.5548L40.6874 0H39.9008V1.9ZM9.50078 26.6H13.3008V22.8H9.50078V26.6ZM11.4008 41.8V32.3H7.60078V41.8H11.4008ZM11.4008 32.3V24.7H7.60078V32.3H11.4008ZM13.3008 30.4H9.50078V34.2H13.3008V30.4ZM15.2008 28.5C15.2008 29.0039 15.0006 29.4872 14.6443 29.8435C14.288 30.1998 13.8047 30.4 13.3008 30.4V34.2C14.8125 34.2 16.2623 33.5995 17.3313 32.5305C18.4002 31.4616 19.0008 30.0117 19.0008 28.5H15.2008ZM13.3008 26.6C13.8047 26.6 14.288 26.8002 14.6443 27.1565C15.0006 27.5128 15.2008 27.9961 15.2008 28.5H19.0008C19.0008 26.9883 18.4002 25.5384 17.3313 24.4695C16.2623 23.4005 14.8125 22.8 13.3008 22.8V26.6ZM22.8008 24.7V39.9H26.6008V24.7H22.8008ZM24.7008 41.8H28.5008V38H24.7008V41.8ZM34.2008 36.1V28.5H30.4008V36.1H34.2008ZM28.5008 22.8H24.7008V26.6H28.5008V22.8ZM34.2008 28.5C34.2008 26.9883 33.6002 25.5384 32.5313 24.4695C31.4623 23.4005 30.0125 22.8 28.5008 22.8V26.6C29.0047 26.6 29.488 26.8002 29.8443 27.1565C30.2006 27.5128 30.4008 27.9961 30.4008 28.5H34.2008ZM28.5008 41.8C30.0125 41.8 31.4623 41.1995 32.5313 40.1305C33.6002 39.0616 34.2008 37.6117 34.2008 36.1H30.4008C30.4008 36.6039 30.2006 37.0872 29.8443 37.4435C29.488 37.7998 29.0047 38 28.5008 38V41.8ZM38.0008 22.8V41.8H41.8008V22.8H38.0008ZM39.9008 26.6H49.4008V22.8H39.9008V26.6ZM39.9008 34.2H45.6008V30.4H39.9008V34.2ZM7.60078 19V5.7H3.80078V19H7.60078ZM49.4008 13.3V19H53.2008V13.3H49.4008ZM9.50078 3.8H39.9008V0H9.50078V3.8ZM38.5556 3.2452L49.9556 14.6452L52.646 11.9548L41.246 0.5548L38.5556 3.2452ZM7.60078 5.7C7.60078 5.19609 7.80096 4.71282 8.15728 4.3565C8.5136 4.00018 8.99687 3.8 9.50078 3.8V0C7.98905 0 6.53923 0.600534 5.47027 1.66949C4.40132 2.73845 3.80078 4.18827 3.80078 5.7H7.60078ZM3.80078 45.6V51.3H7.60078V45.6H3.80078ZM9.50078 57H47.5008V53.2H9.50078V57ZM53.2008 51.3V45.6H49.4008V51.3H53.2008ZM47.5008 57C49.0125 57 50.4623 56.3995 51.5313 55.3305C52.6002 54.2616 53.2008 52.8117 53.2008 51.3H49.4008C49.4008 51.8039 49.2006 52.2872 48.8443 52.6435C48.488 52.9998 48.0047 53.2 47.5008 53.2V57ZM3.80078 51.3C3.80078 52.8117 4.40132 54.2616 5.47027 55.3305C6.53923 56.3995 7.98905 57 9.50078 57V53.2C8.99687 53.2 8.5136 52.9998 8.15728 52.6435C7.80096 52.2872 7.60078 51.8039 7.60078 51.3H3.80078Z" fill="white"/>
</svg>
