<svg width="20" height="20" viewBox="0 0 20 20" fill="none" xmlns="http://www.w3.org/2000/svg">
    <path d="M19.9691 0.648281C19.9595 0.487325 19.8905 0.335424 19.7749 0.221418C19.6594 0.107411 19.5054 0.0392361 19.3423 0.0298365C15.0283 -0.216883 11.5644 1.07757 10.0758 3.50201C9.09231 5.10486 9.09397 7.05148 10.0625 8.90846C9.51121 9.55598 9.10833 10.3134 8.88144 11.1289L7.52538 9.78596C8.17716 8.44298 8.15215 7.04326 7.44204 5.88038C6.34186 4.08838 3.80228 3.12781 0.649267 3.31039C0.486145 3.31979 0.332199 3.38796 0.216658 3.50197C0.101117 3.61597 0.0320241 3.76788 0.0224981 3.92883C-0.163366 7.03997 0.81096 9.54582 2.62709 10.6314C3.22641 10.9927 3.91509 11.1839 4.61741 11.184C5.29911 11.1758 5.97019 11.0164 6.58106 10.7177L8.66474 12.7737V15.1316C8.66474 15.306 8.73499 15.4734 8.86003 15.5968C8.98507 15.7202 9.15467 15.7895 9.33151 15.7895C9.50835 15.7895 9.67795 15.7202 9.80299 15.5968C9.92804 15.4734 9.99829 15.306 9.99829 15.1316V12.7063C9.99532 11.6596 10.3563 10.6436 11.021 9.8279C11.8786 10.2701 12.8297 10.5068 13.7972 10.5187C14.7327 10.5217 15.6508 10.2695 16.4502 9.79007C18.9072 8.32291 20.2225 4.90502 19.9691 0.648281ZM3.3147 9.50634C2.03616 8.74233 1.31271 6.93388 1.33021 4.60484C3.69059 4.58511 5.52339 5.30142 6.29769 6.56298C6.70192 7.2209 6.76776 7.98819 6.50272 8.77852L4.46822 6.77104C4.34216 6.65287 4.1743 6.58796 4.00043 6.59015C3.82656 6.59235 3.66044 6.66148 3.53748 6.7828C3.41453 6.90412 3.34447 7.06804 3.34225 7.2396C3.34002 7.41116 3.4058 7.57679 3.52557 7.70118L5.56007 9.70865C4.7591 9.97018 3.98231 9.90521 3.3147 9.50634ZM15.7592 8.66585C14.6424 9.33282 13.3297 9.38381 11.9961 8.83033L16.471 4.41405C16.5908 4.28966 16.6566 4.12403 16.6543 3.95247C16.6521 3.78091 16.582 3.61699 16.4591 3.49567C16.3361 3.37435 16.17 3.30522 15.9961 3.30303C15.8223 3.30083 15.6544 3.36574 15.5284 3.48391L11.0526 7.89444C10.4892 6.5786 10.54 5.2825 11.2193 4.18131C12.3812 2.28979 15.1366 1.23547 18.6647 1.31689C18.7447 4.79729 17.6779 7.51943 15.7592 8.66585Z" fill="black"/>
</svg>
